<svg width="64" height="64" viewBox="0 0 64 64" fill="none" xmlns="http://www.w3.org/2000/svg">
<path d="M0 16C0 7.16344 7.16344 0 16 0H48C56.8366 0 64 7.16344 64 16V48C64 56.8366 56.8366 64 48 64H16C7.16344 64 0 56.8366 0 48V16Z" fill="#0B1226"/>
<path d="M32.0004 19.5C33.6332 19.5 35.1941 19.7917 36.6828 20.375C38.1076 20.9417 39.3762 21.7375 40.4888 22.7625C41.6014 23.7875 42.4618 24.9583 43.0702 26.275C43.6945 27.6583 44.0066 29.1 44.0066 30.6C44.0066 31.8667 43.7025 33.0417 43.0942 34.125C42.5019 35.1583 41.7014 35.9833 40.6929 36.6C39.6684 37.2333 38.5478 37.55 37.3312 37.55H34.9779C34.4176 37.55 33.9454 37.7542 33.5612 38.1625C33.177 38.5708 32.9849 39.0667 32.9849 39.65C32.9849 40.1667 33.153 40.625 33.4892 41.025C33.8253 41.425 33.9934 41.8917 33.9934 42.425C33.9934 42.9917 33.7973 43.4792 33.4051 43.8875C33.0129 44.2958 32.5447 44.5 32.0004 44.5C30.3675 44.5 28.8067 44.175 27.318 43.525C25.8932 42.8917 24.6246 41.9958 23.512 40.8375C22.3994 39.6792 21.5389 38.3583 20.9306 36.875C20.3063 35.325 19.9941 33.7 19.9941 32C19.9941 30.3 20.3063 28.675 20.9306 27.125C21.5389 25.6417 22.3994 24.3208 23.512 23.1625C24.6246 22.0042 25.8932 21.1083 27.318 20.475C28.8067 19.825 30.3675 19.5 32.0004 19.5ZM30.5837 39.65C30.5837 38.8167 30.7798 38.05 31.172 37.35C31.5642 36.65 32.0964 36.0917 32.7688 35.675C33.4411 35.2583 34.1775 35.05 34.9779 35.05H37.3312C38.0996 35.05 38.8119 34.85 39.4683 34.45C40.1246 34.05 40.6449 33.5125 41.0291 32.8375C41.4133 32.1625 41.6054 31.4167 41.6054 30.6C41.6054 29.0667 41.1732 27.6333 40.3087 26.3C39.4603 25 38.3157 23.9667 36.8749 23.2C35.3862 22.4 33.7653 22 32.0124 22C30.2595 22 28.6386 22.4583 27.1499 23.375C25.7091 24.2583 24.5645 25.45 23.7161 26.95C22.8356 28.5 22.3954 30.1833 22.3954 32C22.3954 33.7167 22.7876 35.325 23.572 36.825C24.3404 38.275 25.3889 39.45 26.7176 40.35C28.0783 41.2833 29.5671 41.825 31.184 41.975C30.7838 41.2417 30.5837 40.4667 30.5837 39.65ZM26.5976 32C26.1013 32 25.6771 31.8167 25.3249 31.45C24.9727 31.0833 24.7966 30.6417 24.7966 30.125C24.7966 29.6083 24.9727 29.1667 25.3249 28.8C25.6771 28.4333 26.1013 28.25 26.5976 28.25C27.0938 28.25 27.5181 28.4333 27.8702 28.8C28.2224 29.1667 28.3985 29.6083 28.3985 30.125C28.3985 30.6417 28.2224 31.0833 27.8702 31.45C27.5181 31.8167 27.0938 32 26.5976 32ZM37.4032 32C36.9069 32 36.4827 31.8167 36.1305 31.45C35.7784 31.0833 35.6023 30.6417 35.6023 30.125C35.6023 29.6083 35.7784 29.1667 36.1305 28.8C36.4827 28.4333 36.9069 28.25 37.4032 28.25C37.8995 28.25 38.3237 28.4333 38.6759 28.8C39.028 29.1667 39.2041 29.6083 39.2041 30.125C39.2041 30.6417 39.028 31.0833 38.6759 31.45C38.3237 31.8167 37.8995 32 37.4032 32ZM32.0004 28.25C31.5041 28.25 31.0799 28.0667 30.7277 27.7C30.3755 27.3333 30.1995 26.8917 30.1995 26.375C30.1995 25.8583 30.3755 25.4167 30.7277 25.05C31.0799 24.6833 31.5041 24.5 32.0004 24.5C32.4966 24.5 32.9209 24.6833 33.2731 25.05C33.6252 25.4167 33.8013 25.8583 33.8013 26.375C33.8013 26.8917 33.6252 27.3333 33.2731 27.7C32.9209 28.0667 32.4966 28.25 32.0004 28.25Z" fill="white"/>
</svg>
