<svg width="56" height="56" viewBox="0 0 56 56" fill="none" xmlns="http://www.w3.org/2000/svg">
<path d="M0 12C0 5.37258 5.37258 0 12 0H44C50.6274 0 56 5.37258 56 12V44C56 50.6274 50.6274 56 44 56H12C5.37258 56 0 50.6274 0 44V12Z" fill="#D4AF37"/>
<path d="M18.4004 20C18.4004 19.72 18.4932 19.4833 18.6788 19.29C18.8644 19.0967 19.0916 19 19.3604 19H36.6404C36.9092 19 37.1364 19.0967 37.322 19.29C37.5076 19.4833 37.6004 19.72 37.6004 20V36C37.6004 36.28 37.5076 36.5167 37.322 36.71C37.1364 36.9033 36.9092 37 36.6404 37H19.3604C19.0916 37 18.8644 36.9033 18.6788 36.71C18.4932 36.5167 18.4004 36.28 18.4004 36V20ZM24.1604 21V35H31.8404V21H24.1604ZM20.3204 21V23H22.2404V21H20.3204ZM33.7604 21V23H35.6804V21H33.7604ZM20.3204 25V27H22.2404V25H20.3204ZM33.7604 25V27H35.6804V25H33.7604ZM20.3204 29V31H22.2404V29H20.3204ZM33.7604 29V31H35.6804V29H33.7604ZM20.3204 33V35H22.2404V33H20.3204ZM33.7604 33V35H35.6804V33H33.7604Z" fill="white"/>
</svg>
