<svg width="40" height="40" viewBox="0 0 40 40" fill="none" xmlns="http://www.w3.org/2000/svg">
<path d="M0 8C0 3.58172 3.58172 0 8 0H32C36.4183 0 40 3.58172 40 8V32C40 36.4183 36.4183 40 32 40H8C3.58172 40 0 36.4183 0 32V8Z" fill="white" fill-opacity="0.1"/>
<path d="M14.9552 14.75H25.0464C25.2034 14.75 25.3361 14.8064 25.4444 14.9192C25.5528 15.0319 25.607 15.17 25.607 15.3333V24.6667C25.607 24.83 25.5528 24.9681 25.4444 25.0808C25.3361 25.1936 25.2034 25.25 25.0464 25.25H14.9552C14.7982 25.25 14.6655 25.1936 14.5571 25.0808C14.4487 24.9681 14.3945 24.83 14.3945 24.6667V15.3333C14.3945 15.17 14.4487 15.0319 14.5571 14.9192C14.6655 14.8064 14.7982 14.75 14.9552 14.75ZM24.4858 17.2233L20.0456 21.365L15.5158 17.2117V24.0833H24.4858V17.2233ZM15.8073 15.9167L20.0344 19.8017L24.2055 15.9167H15.8073Z" fill="white"/>
</svg>
