<svg width="64" height="64" viewBox="0 0 64 64" fill="none" xmlns="http://www.w3.org/2000/svg">
<path d="M0 16C0 7.16344 7.16344 0 16 0H48C56.8366 0 64 7.16344 64 16V48C64 56.8366 56.8366 64 48 64H16C7.16344 64 0 56.8366 0 48V16Z" fill="#0B1226"/>
<path d="M39.0588 37.5752L44.1975 42.9252L42.4926 44.7002L37.3539 39.3502C36.4094 40.1335 35.3769 40.7335 34.2563 41.1502C33.0717 41.5835 31.8551 41.8002 30.6064 41.8002C28.6534 41.8002 26.8364 41.2919 25.1556 40.2752C23.5227 39.2752 22.234 37.9252 21.2896 36.2252C20.297 34.4752 19.8008 32.5835 19.8008 30.5502C19.8008 28.5169 20.297 26.6252 21.2896 24.8752C22.234 23.1752 23.5227 21.8335 25.1556 20.8502C26.8364 19.8169 28.6534 19.3002 30.6064 19.3002C32.5594 19.3002 34.3764 19.8169 36.0572 20.8502C37.6901 21.8335 38.9868 23.1752 39.9473 24.8752C40.9238 26.6252 41.412 28.5169 41.412 30.5502C41.412 31.8502 41.2039 33.1169 40.7877 34.3502C40.3875 35.5169 39.8112 36.5919 39.0588 37.5752ZM36.6335 36.6502C37.3859 35.8502 37.9702 34.9335 38.3865 33.9002C38.8027 32.8335 39.0108 31.7169 39.0108 30.5502C39.0108 28.9669 38.6266 27.4919 37.8582 26.1252C37.1218 24.8085 36.1213 23.7669 34.8566 23.0002C33.5439 22.2002 32.1272 21.8002 30.6064 21.8002C29.0856 21.8002 27.6689 22.2002 26.3562 23.0002C25.0915 23.7669 24.091 24.8085 23.3546 26.1252C22.5862 27.4919 22.202 28.9669 22.202 30.5502C22.202 32.1335 22.5862 33.6085 23.3546 34.9752C24.091 36.2919 25.0915 37.3335 26.3562 38.1002C27.6689 38.9002 29.0856 39.3002 30.6064 39.3002C31.727 39.3002 32.7995 39.0835 33.8241 38.6502C34.8166 38.2169 35.6971 37.6085 36.4655 36.8252L36.6335 36.6502Z" fill="white"/>
</svg>
