<svg width="64" height="64" viewBox="0 0 64 64" fill="none" xmlns="http://www.w3.org/2000/svg">
<path d="M0 16C0 7.16344 7.16344 0 16 0H48C56.8366 0 64 7.16344 64 16V48C64 56.8366 56.8366 64 48 64H16C7.16344 64 0 56.8366 0 48V16Z" fill="#0B1226"/>
<path d="M29.5743 38.875H30.7989V32.625H33.2002V38.875H34.4248C34.5048 38.1583 34.729 37.4583 35.0971 36.775C35.4173 36.1583 35.8896 35.4917 36.5139 34.775L36.8501 34.4C37.3143 33.9 37.5704 33.625 37.6185 33.575C38.1307 32.9083 38.5229 32.175 38.7951 31.375C39.0672 30.575 39.2033 29.7417 39.2033 28.875C39.2033 27.525 38.8751 26.2667 38.2188 25.1C37.5784 23.9667 36.714 23.0667 35.6254 22.4C34.5048 21.7167 33.2962 21.375 31.9995 21.375C30.7029 21.375 29.4942 21.7167 28.3736 22.4C27.2851 23.0667 26.4206 23.9667 25.7803 25.1C25.124 26.2667 24.7958 27.525 24.7958 28.875C24.7958 29.7417 24.9319 30.575 25.204 31.375C25.4761 32.175 25.8683 32.9 26.3806 33.55C26.4286 33.6167 26.6848 33.9 27.149 34.4L27.4852 34.775C28.1095 35.4917 28.5818 36.1583 28.9019 36.775C29.2701 37.4583 29.4942 38.1583 29.5743 38.875ZM29.5983 41.375V42.625H34.4008V41.375H29.5983ZM24.5076 35.125C23.8353 34.2583 23.315 33.3 22.9468 32.25C22.5786 31.1667 22.3945 30.0417 22.3945 28.875C22.3945 27.0583 22.8348 25.375 23.7152 23.825C24.5637 22.325 25.7083 21.1333 27.149 20.25C28.6378 19.3333 30.2546 18.875 31.9995 18.875C33.7444 18.875 35.3613 19.3333 36.8501 20.25C38.2908 21.1333 39.4354 22.325 40.2838 23.825C41.1643 25.375 41.6045 27.0583 41.6045 28.875C41.6045 30.0417 41.4204 31.1667 41.0522 32.25C40.6841 33.3 40.1638 34.2583 39.4914 35.125C39.3794 35.275 39.1553 35.525 38.8191 35.875C38.1948 36.5583 37.7545 37.1 37.4984 37.5C37.0342 38.2 36.802 38.8667 36.802 39.5V42.625C36.802 43.075 36.694 43.4917 36.4779 43.875C36.2617 44.2583 35.9696 44.5625 35.6014 44.7875C35.2332 45.0125 34.833 45.125 34.4008 45.125H29.5983C29.1661 45.125 28.7658 45.0125 28.3977 44.7875C28.0295 44.5625 27.7373 44.2583 27.5212 43.875C27.3051 43.4917 27.197 43.075 27.197 42.625V39.5C27.197 38.8667 26.9649 38.2 26.5007 37.5C26.2445 37.1 25.8043 36.5583 25.18 35.875C24.8438 35.525 24.6197 35.275 24.5076 35.125Z" fill="white"/>
</svg>
