<svg width="56" height="56" viewBox="0 0 56 56" fill="none" xmlns="http://www.w3.org/2000/svg">
<path d="M0 12C0 5.37258 5.37258 0 12 0H44C50.6274 0 56 5.37258 56 12V44C56 50.6274 50.6274 56 44 56H12C5.37258 56 0 50.6274 0 44V12Z" fill="white" fill-opacity="0.1"/>
<path d="M19.3604 19H36.6404C36.9092 19 37.1364 19.0967 37.322 19.29C37.5076 19.4833 37.6004 19.72 37.6004 20V36C37.6004 36.28 37.5076 36.5167 37.322 36.71C37.1364 36.9033 36.9092 37 36.6404 37H19.3604C19.0916 37 18.8644 36.9033 18.6788 36.71C18.4932 36.5167 18.4004 36.28 18.4004 36V20C18.4004 19.72 18.4932 19.4833 18.6788 19.29C18.8644 19.0967 19.0916 19 19.3604 19ZM20.3204 21V35H35.6804V21H20.3204ZM28.0004 31H33.7604V33H28.0004V31ZM24.794 28L22.0868 25.18L23.45 23.76L27.5204 28L23.45 32.24L22.0868 30.82L24.794 28Z" fill="white" fill-opacity="0.6"/>
</svg>
