<svg width="272" height="40" viewBox="0 0 272 40" fill="none" xmlns="http://www.w3.org/2000/svg">
<path d="M128 8C128 3.58172 131.582 0 136 0H160C164.418 0 168 3.58172 168 8V32C168 36.4183 164.418 40 160 40H136C131.582 40 128 36.4183 128 32V8Z" fill="white" fill-opacity="0.1"/>
<path d="M148.816 11.6663C149.627 11.6663 150.213 11.6719 150.576 11.683L151.296 11.7163C152.043 11.7497 152.688 11.8775 153.232 12.0997C153.776 12.3219 154.251 12.6441 154.656 13.0663C155.061 13.4886 155.371 13.983 155.584 14.5497C155.797 15.1163 155.92 15.7886 155.952 16.5663L155.984 17.3163C155.995 17.7052 156 18.3163 156 19.1497V20.8497C156 21.6941 155.995 22.3052 155.984 22.683L155.952 23.433C155.92 24.2108 155.797 24.883 155.584 25.4497C155.371 26.0163 155.061 26.5108 154.656 26.933C154.251 27.3552 153.776 27.6775 153.232 27.8997C152.688 28.1219 152.043 28.2497 151.296 28.283L150.576 28.3163C150.203 28.3275 149.616 28.333 148.816 28.333H147.184C146.373 28.333 145.787 28.3275 145.424 28.3163L144.704 28.283C143.957 28.2497 143.312 28.1219 142.768 27.8997C142.224 27.6775 141.749 27.3552 141.344 26.933C140.939 26.5108 140.629 26.0163 140.416 25.4497C140.203 24.883 140.08 24.2108 140.048 23.433L140.016 22.683C140.005 22.2941 140 21.683 140 20.8497V19.1497C140 18.3052 140.005 17.6941 140.016 17.3163L140.048 16.5663C140.08 15.7886 140.203 15.1163 140.416 14.5497C140.629 13.983 140.939 13.4886 141.344 13.0663C141.749 12.6441 142.224 12.3219 142.768 12.0997C143.312 11.8775 143.957 11.7497 144.704 11.7163L145.424 11.683C145.797 11.6719 146.384 11.6663 147.184 11.6663H148.816ZM148 15.833C147.275 15.833 146.605 16.0191 145.992 16.3913C145.379 16.7636 144.893 17.2691 144.536 17.908C144.179 18.5469 144 19.2441 144 19.9997C144 20.7552 144.179 21.4525 144.536 22.0913C144.893 22.7302 145.379 23.2358 145.992 23.608C146.605 23.9802 147.275 24.1663 148 24.1663C148.725 24.1663 149.395 23.9802 150.008 23.608C150.621 23.2358 151.107 22.7302 151.464 22.0913C151.821 21.4525 152 20.7552 152 19.9997C152 19.2441 151.821 18.5469 151.464 17.908C151.107 17.2691 150.621 16.7636 150.008 16.3913C149.395 16.0191 148.725 15.833 148 15.833ZM148 17.4997C148.437 17.4997 148.84 17.6108 149.208 17.833C149.576 18.0552 149.867 18.358 150.08 18.7413C150.293 19.1247 150.4 19.5441 150.4 19.9997C150.4 20.4552 150.293 20.8747 150.08 21.258C149.867 21.6413 149.576 21.9441 149.208 22.1663C148.84 22.3886 148.437 22.4997 148 22.4997C147.563 22.4997 147.16 22.3886 146.792 22.1663C146.424 21.9441 146.133 21.6413 145.92 21.258C145.707 20.8747 145.6 20.4552 145.6 19.9997C145.6 19.5441 145.707 19.1247 145.92 18.7413C146.133 18.358 146.424 18.0552 146.792 17.833C147.16 17.6108 147.563 17.4997 148 17.4997ZM152.192 14.583C151.925 14.583 151.693 14.6858 151.496 14.8913C151.299 15.0969 151.2 15.3413 151.2 15.6247C151.2 15.908 151.299 16.1525 151.496 16.358C151.693 16.5636 151.928 16.6663 152.2 16.6663C152.472 16.6663 152.707 16.5636 152.904 16.358C153.101 16.1525 153.2 15.908 153.2 15.6247C153.2 15.3413 153.101 15.0969 152.904 14.8913C152.707 14.6858 152.469 14.583 152.192 14.583Z" fill="white"/>
<path d="M180 8C180 3.58172 183.582 0 188 0H212C216.418 0 220 3.58172 220 8V32C220 36.4183 216.418 40 212 40H188C183.582 40 180 36.4183 180 32V8Z" fill="white" fill-opacity="0.1"/>
<path d="M204.544 12.5502L200.544 17.3169L197.088 12.5502H192.096L198.064 20.7002L192.4 27.4502H194.832L199.2 22.2335L203.024 27.4502H207.904L201.68 18.8669L206.976 12.5502H204.544ZM203.696 25.9335L194.928 13.9835H196.368L205.04 25.9335H203.696Z" fill="white"/>
<path d="M232 8C232 3.58172 235.582 0 240 0H264C268.418 0 272 3.58172 272 8V32C272 36.4183 268.418 40 264 40H240C235.582 40 232 36.4183 232 32V8Z" fill="white" fill-opacity="0.1"/>
<path d="M247.584 14.1667C247.574 14.5111 247.478 14.8222 247.296 15.1C247.115 15.3778 246.875 15.5806 246.576 15.7083C246.278 15.8361 245.968 15.8667 245.648 15.8C245.328 15.7333 245.054 15.5778 244.824 15.3333C244.595 15.0889 244.454 14.8 244.4 14.4667C244.347 14.1333 244.384 13.8111 244.512 13.5C244.64 13.1889 244.843 12.9417 245.12 12.7583C245.398 12.575 245.702 12.4889 246.032 12.5C246.459 12.5111 246.824 12.6778 247.128 13C247.432 13.3222 247.584 13.7111 247.584 14.1667ZM247.632 17.0667H244.432V27.5H247.632V17.0667ZM252.688 17.0667H249.504V27.5H252.656V22.0333C252.656 21.4444 252.784 20.9444 253.04 20.5333C253.286 20.1556 253.6 19.8944 253.984 19.75C254.368 19.6056 254.752 19.5944 255.136 19.7167C255.52 19.8389 255.83 20.0833 256.064 20.45C256.331 20.8722 256.464 21.4 256.464 22.0333V27.5H259.632V20.9C259.632 19.9222 259.43 19.0944 259.024 18.4167C258.672 17.8278 258.182 17.3833 257.552 17.0833C256.976 16.8278 256.352 16.7167 255.68 16.75C255.03 16.7833 254.427 16.9528 253.872 17.2583C253.318 17.5639 252.912 17.9667 252.656 18.4667L252.688 17.0667Z" fill="white"/>
</svg>
