<svg width="64" height="64" viewBox="0 0 64 64" fill="none" xmlns="http://www.w3.org/2000/svg">
<path d="M0 16C0 7.16344 7.16344 0 16 0H48C56.8366 0 64 7.16344 64 16V48C64 56.8366 56.8366 64 48 64H16C7.16344 64 0 56.8366 0 48V16Z" fill="#0B1226"/>
<path d="M36.2017 41.3999C35.8015 42.3832 35.2372 43.2541 34.5088 44.0124C33.7805 44.7707 32.944 45.3582 31.9995 45.7749C31.055 45.3582 30.2186 44.7707 29.4902 44.0124C28.7618 43.2541 28.1976 42.3832 27.7973 41.3999H30.5108C30.911 42.0166 31.4072 42.5332 31.9995 42.9499C32.5918 42.5332 33.0881 42.0166 33.4883 41.3999H36.2017ZM39.2033 34.8999L41.6045 37.7499V40.1499H22.3945V37.7499L24.7958 34.8999V27.6499C24.7958 26.2332 25.1079 24.8749 25.7323 23.5749C26.3406 22.3249 27.189 21.2332 28.2776 20.2999C29.3662 19.3666 30.6068 18.6749 31.9995 18.2249C33.3923 18.6749 34.6329 19.3666 35.7215 20.2999C36.81 21.2332 37.6585 22.3249 38.2668 23.5749C38.8911 24.8749 39.2033 26.2332 39.2033 27.6499V34.8999ZM38.3148 37.6499L36.802 35.8499V27.6499C36.802 26.1999 36.3658 24.8624 35.4933 23.6374C34.6209 22.4124 33.4563 21.4916 31.9995 20.8749C30.5428 21.4916 29.3782 22.4124 28.5057 23.6374C27.6333 24.8624 27.197 26.1999 27.197 27.6499V35.8499L25.6842 37.6499H38.3148ZM31.9995 30.1499C31.5673 30.1499 31.1671 30.0374 30.7989 29.8124C30.4307 29.5874 30.1386 29.2832 29.9224 28.8999C29.7063 28.5166 29.5983 28.0999 29.5983 27.6499C29.5983 27.1999 29.7063 26.7832 29.9224 26.3999C30.1386 26.0166 30.4307 25.7124 30.7989 25.4874C31.1671 25.2624 31.5673 25.1499 31.9995 25.1499C32.4318 25.1499 32.832 25.2624 33.2002 25.4874C33.5683 25.7124 33.8605 26.0166 34.0766 26.3999C34.2927 26.7832 34.4008 27.1999 34.4008 27.6499C34.4008 28.0999 34.2927 28.5166 34.0766 28.8999C33.8605 29.2832 33.5683 29.5874 33.2002 29.8124C32.832 30.0374 32.4318 30.1499 31.9995 30.1499Z" fill="white"/>
</svg>
