<svg width="56" height="56" viewBox="0 0 56 56" fill="none" xmlns="http://www.w3.org/2000/svg">
<path d="M0 12C0 5.37258 5.37258 0 12 0H44C50.6274 0 56 5.37258 56 12V44C56 50.6274 50.6274 56 44 56H12C5.37258 56 0 50.6274 0 44V12Z" fill="white" fill-opacity="0.1"/>
<path d="M18.8809 28.5H20.8009V37.5H18.8809V28.5ZM21.7609 30.5H23.6809V37.5H21.7609V30.5ZM32.3209 24.5H34.2409V37.5H32.3209V24.5ZM35.2009 26.5H37.1209V37.5H35.2009V26.5ZM25.6009 18.5H27.5209V37.5H25.6009V18.5ZM28.4809 20.5H30.4009V37.5H28.4809V20.5Z" fill="white" fill-opacity="0.6"/>
</svg>
