<svg width="40" height="40" viewBox="0 0 40 40" fill="none" xmlns="http://www.w3.org/2000/svg">
<path d="M0 8C0 3.58172 3.58172 0 8 0H32C36.4183 0 40 3.58172 40 8V32C40 36.4183 36.4183 40 32 40H8C3.58172 40 0 36.4183 0 32V8Z" fill="white" fill-opacity="0.1"/>
<path d="M20.0007 24.69L22.7702 21.7966C23.2785 21.2755 23.6223 20.6611 23.8017 19.9533C23.9737 19.2611 23.9737 18.5688 23.8017 17.8766C23.6223 17.1688 23.2804 16.5525 22.7758 16.0275C22.2712 15.5025 21.6788 15.1466 20.9986 14.96C20.3333 14.7811 19.6681 14.7811 19.0028 14.96C18.3226 15.1466 17.7302 15.5025 17.2256 16.0275C16.721 16.5525 16.3791 17.1688 16.1997 17.8766C16.0277 18.5688 16.0277 19.2611 16.1997 19.9533C16.3791 20.6611 16.7229 21.2755 17.2312 21.7966L20.0007 24.69ZM20.0007 26.335L16.4351 22.625C15.7848 21.9561 15.3475 21.1627 15.1233 20.245C14.899 19.3583 14.899 18.4716 15.1233 17.585C15.3475 16.6672 15.7829 15.8719 16.4295 15.1991C17.0761 14.5264 17.8404 14.0694 18.7225 13.8283C19.5746 13.6027 20.4268 13.6027 21.2789 13.8283C22.161 14.0694 22.9253 14.5264 23.5719 15.1991C24.2185 15.8719 24.6539 16.6672 24.8781 17.585C25.1024 18.4716 25.1024 19.3583 24.8781 20.245C24.6539 21.1627 24.2166 21.9561 23.5663 22.625L20.0007 26.335ZM20.0007 20.0816C20.2025 20.0816 20.3894 20.0291 20.5613 19.9241C20.7333 19.8191 20.8697 19.6772 20.9706 19.4983C21.0715 19.3194 21.122 19.125 21.122 18.915C21.122 18.705 21.0715 18.5105 20.9706 18.3316C20.8697 18.1527 20.7333 18.0108 20.5613 17.9058C20.3894 17.8008 20.2025 17.7483 20.0007 17.7483C19.7989 17.7483 19.612 17.8008 19.4401 17.9058C19.2682 18.0108 19.1317 18.1527 19.0308 18.3316C18.9299 18.5105 18.8795 18.705 18.8795 18.915C18.8795 19.125 18.9299 19.3194 19.0308 19.4983C19.1317 19.6772 19.2682 19.8191 19.4401 19.9241C19.612 20.0291 19.7989 20.0816 20.0007 20.0816ZM20.0007 21.2483C19.5971 21.2483 19.2233 21.1433 18.8795 20.9333C18.5356 20.7233 18.2628 20.4394 18.0609 20.0816C17.8591 19.7238 17.7582 19.333 17.7582 18.9091C17.7582 18.4852 17.8591 18.0963 18.0609 17.7425C18.2628 17.3886 18.5356 17.1066 18.8795 16.8966C19.2233 16.6866 19.5971 16.5816 20.0007 16.5816C20.4044 16.5816 20.7781 16.6866 21.122 16.8966C21.4658 17.1066 21.7386 17.3886 21.9405 17.7425C22.1423 18.0963 22.2432 18.4852 22.2432 18.9091C22.2432 19.333 22.1423 19.7238 21.9405 20.0816C21.7386 20.4394 21.4658 20.7233 21.122 20.9333C20.7781 21.1433 20.4044 21.2483 20.0007 21.2483Z" fill="white"/>
</svg>
