<svg width="40" height="40" viewBox="0 0 40 40" fill="none" xmlns="http://www.w3.org/2000/svg">
<path d="M0 8C0 3.58172 3.58172 0 8 0H32C36.4183 0 40 3.58172 40 8V32C40 36.4183 36.4183 40 32 40H8C3.58172 40 0 36.4183 0 32V8Z" fill="white" fill-opacity="0.1"/>
<path d="M18.5207 19.23C18.7823 19.7122 19.1018 20.1497 19.4793 20.5425C19.8568 20.9353 20.2773 21.2678 20.7407 21.54L21.2341 20.8167C21.3163 20.6922 21.4266 20.6144 21.5648 20.5833C21.7031 20.5522 21.8358 20.5717 21.9629 20.6417C22.7627 21.1006 23.6186 21.365 24.5306 21.435C24.6726 21.4506 24.794 21.5128 24.895 21.6217C24.9959 21.7306 25.0463 21.8628 25.0463 22.0183V24.62C25.0463 24.7678 24.9977 24.8981 24.9006 25.0108C24.8034 25.1236 24.6838 25.1878 24.5418 25.2033C24.2428 25.2344 23.9438 25.25 23.6448 25.25C22.4637 25.25 21.335 25.0128 20.2586 24.5383C19.2196 24.0794 18.3001 23.4339 17.5003 22.6017C16.7005 21.7694 16.0801 20.8128 15.639 19.7317C15.1831 18.6117 14.9551 17.4372 14.9551 16.2083C14.9551 15.8972 14.97 15.5861 14.9999 15.275C15.0149 15.1272 15.0765 15.0028 15.1849 14.9017C15.2933 14.8006 15.4185 14.75 15.5606 14.75H18.0609C18.2104 14.75 18.3375 14.8025 18.4422 14.9075C18.5468 15.0125 18.6066 15.1389 18.6216 15.2867C18.6888 16.2356 18.943 17.1261 19.384 17.9583C19.4513 18.0906 19.47 18.2286 19.4401 18.3725C19.4102 18.5164 19.3354 18.6311 19.2158 18.7167L18.5207 19.23ZM17.1079 18.845L18.1731 18.0517C17.8741 17.375 17.6685 16.6633 17.5564 15.9167H16.0763V16.2083C16.0763 17.2739 16.2744 18.2967 16.6706 19.2767C17.0518 20.2178 17.5919 21.0519 18.2908 21.7792C18.9897 22.5064 19.7914 23.0683 20.6959 23.465C21.6377 23.8772 22.6207 24.0833 23.6448 24.0833H23.9251V22.5433C23.2075 22.4267 22.5235 22.2128 21.8732 21.9017L21.1107 23.01C20.8043 22.8856 20.5053 22.7378 20.2137 22.5667L20.1801 22.555C19.6344 22.2283 19.1373 21.8317 18.6888 21.365C18.2403 20.8983 17.8591 20.3811 17.5452 19.8133L17.534 19.7783C17.3695 19.475 17.2275 19.1639 17.1079 18.845Z" fill="white"/>
</svg>
