<svg width="15" height="20" viewBox="0 0 15 20" fill="none" xmlns="http://www.w3.org/2000/svg">
<path d="M12.0543 14.0833H13.1755V15.25H0.841797V14.0833H1.96305V5.33333C1.96305 5.17 2.01724 5.03194 2.12563 4.91917C2.23402 4.80639 2.3667 4.75 2.52367 4.75H8.12992C8.2869 4.75 8.41958 4.80639 8.52797 4.91917C8.63635 5.03194 8.69055 5.17 8.69055 5.33333V14.0833H10.933V9.41667H9.8118V8.25H11.4937C11.6506 8.25 11.7833 8.30639 11.8917 8.41917C12.0001 8.53194 12.0543 8.67 12.0543 8.83333V14.0833ZM3.0843 5.91667V14.0833H7.5693V5.91667H3.0843ZM4.20555 9.41667H6.44805V10.5833H4.20555V9.41667ZM4.20555 7.08333H6.44805V8.25H4.20555V7.08333Z" fill="#6B7280"/>
</svg>
