<svg width="12" height="16" viewBox="0 0 12 16" fill="none" xmlns="http://www.w3.org/2000/svg">
<path d="M5.99922 13C5.34642 13 4.72242 12.87 4.12722 12.61C3.55762 12.3567 3.05042 11.9983 2.60562 11.535C2.16082 11.0717 1.81682 10.5433 1.57362 9.95C1.32402 9.33 1.19922 8.68 1.19922 8C1.19922 7.32 1.32402 6.67 1.57362 6.05C1.81682 5.45667 2.16082 4.92833 2.60562 4.465C3.05042 4.00167 3.55762 3.64333 4.12722 3.39C4.72242 3.13 5.34642 3 5.99922 3C6.65202 3 7.27602 3.13 7.87122 3.39C8.44082 3.64333 8.94802 4.00167 9.39282 4.465C9.83762 4.92833 10.1816 5.45667 10.4248 6.05C10.6744 6.67 10.7992 7.32 10.7992 8C10.7992 8.68 10.6744 9.33 10.4248 9.95C10.1816 10.5433 9.83762 11.0717 9.39282 11.535C8.94802 11.9983 8.44082 12.3567 7.87122 12.61C7.27602 12.87 6.65202 13 5.99922 13ZM5.99922 12C6.69682 12 7.34322 11.8167 7.93842 11.45C8.51442 11.0967 8.97202 10.62 9.31122 10.02C9.66322 9.4 9.83922 8.72667 9.83922 8C9.83922 7.27333 9.66322 6.6 9.31122 5.98C8.97202 5.38 8.51442 4.90333 7.93842 4.55C7.34322 4.18333 6.69682 4 5.99922 4C5.30162 4 4.65522 4.18333 4.06002 4.55C3.48402 4.90333 3.02642 5.38 2.68722 5.98C2.33522 6.6 2.15922 7.27333 2.15922 8C2.15922 8.72667 2.33522 9.4 2.68722 10.02C3.02642 10.62 3.48402 11.0967 4.06002 11.45C4.65522 11.8167 5.30162 12 5.99922 12ZM6.47922 8H8.39922V9H5.51922V5.5H6.47922V8Z" fill="#6B7280"/>
</svg>
