<svg width="15" height="20" viewBox="0 0 15 20" fill="none" xmlns="http://www.w3.org/2000/svg">
<path d="M12.0542 4.30664C12.2112 4.30664 12.3439 4.36497 12.4523 4.48164C12.5606 4.59831 12.6148 4.73442 12.6148 4.88997V13.0566C12.6148 13.22 12.5606 13.36 12.4523 13.4766C12.3439 13.5933 12.2112 13.6478 12.0542 13.64H3.90273L1.40234 15.6816V4.88997C1.40234 4.73442 1.45654 4.59831 1.56493 4.48164C1.67331 4.36497 1.80599 4.30664 1.96297 4.30664H12.0542ZM11.4936 5.47331H2.52359V13.29L3.51029 12.4733H11.4936V5.47331ZM6.17887 6.88497L6.42554 7.29331C6.03684 7.51108 5.76774 7.80664 5.61824 8.17997C5.54349 8.37442 5.50612 8.5922 5.50612 8.83331V8.84497C5.59582 8.82942 5.68552 8.82553 5.77522 8.83331C6.02937 8.85664 6.24428 8.96553 6.41994 9.15997C6.5956 9.35442 6.68343 9.5897 6.68343 9.86581C6.68343 10.1419 6.58812 10.3791 6.39751 10.5775C6.2069 10.7758 5.97331 10.875 5.69673 10.875C5.55471 10.875 5.41455 10.8439 5.27626 10.7816C5.13797 10.7194 5.02398 10.6378 4.93428 10.5366C4.77731 10.3655 4.66518 10.1866 4.59791 9.99997C4.52316 9.79775 4.48578 9.55664 4.48578 9.27664C4.48578 8.77109 4.64089 8.30442 4.9511 7.87664C5.26131 7.44886 5.67057 7.11831 6.17887 6.88497ZM8.98199 6.88497L9.22867 7.29331C8.83997 7.51108 8.57087 7.80664 8.42137 8.17997C8.34662 8.37442 8.30924 8.5922 8.30924 8.83331V8.84497C8.39894 8.82942 8.48864 8.82553 8.57834 8.83331C8.83249 8.85664 9.0474 8.96553 9.22306 9.15997C9.39873 9.35442 9.48656 9.5897 9.48656 9.86581C9.48656 10.1419 9.39125 10.3791 9.20064 10.5775C9.01003 10.7758 8.77643 10.875 8.49986 10.875C8.35783 10.875 8.21767 10.8439 8.07939 10.7816C7.9411 10.7194 7.82711 10.6378 7.73741 10.5366C7.58043 10.3655 7.46831 10.1866 7.40103 9.99997C7.32628 9.79775 7.28891 9.55664 7.28891 9.27664C7.28891 8.77109 7.44401 8.30442 7.75422 7.87664C8.06444 7.44886 8.47369 7.11831 8.98199 6.88497Z" fill="#0B1226"/>
</svg>
