<svg width="15" height="20" viewBox="0 0 15 20" fill="none" xmlns="http://www.w3.org/2000/svg">
<path d="M7.00859 15.8335C6.24614 15.8335 5.51733 15.6818 4.82216 15.3785C4.15688 15.0829 3.56449 14.6649 3.04497 14.1243C2.52546 13.5838 2.12368 12.9674 1.83963 12.2752C1.54811 11.5518 1.40234 10.7935 1.40234 10.0002C1.40234 9.20683 1.54811 8.4485 1.83963 7.72516C2.12368 7.03294 2.52546 6.41655 3.04497 5.876C3.56449 5.33544 4.15688 4.91739 4.82216 4.62183C5.51733 4.3185 6.24614 4.16683 7.00859 4.16683C7.77104 4.16683 8.49986 4.3185 9.19503 4.62183C9.86031 4.91739 10.4527 5.33544 10.9722 5.876C11.4917 6.41655 11.8935 7.03294 12.1776 7.72516C12.4691 8.4485 12.6148 9.20683 12.6148 10.0002C12.6148 10.7935 12.4691 11.5518 12.1776 12.2752C11.8935 12.9674 11.4917 13.5838 10.9722 14.1243C10.4527 14.6649 9.86031 15.0829 9.19503 15.3785C8.49986 15.6818 7.77104 15.8335 7.00859 15.8335ZM7.00859 14.6668C7.82337 14.6668 8.57834 14.4529 9.27352 14.0252C9.94627 13.6129 10.4807 13.0568 10.8769 12.3568C11.288 11.6335 11.4936 10.8479 11.4936 10.0002C11.4936 9.15238 11.288 8.36683 10.8769 7.6435C10.4807 6.9435 9.94627 6.38739 9.27352 5.97516C8.57834 5.54739 7.82337 5.3335 7.00859 5.3335C6.19382 5.3335 5.43884 5.54739 4.74367 5.97516C4.07092 6.38739 3.53646 6.9435 3.14028 7.6435C2.72916 8.36683 2.52359 9.15238 2.52359 10.0002C2.52359 10.8479 2.72916 11.6335 3.14028 12.3568C3.53646 13.0568 4.07092 13.6129 4.74367 14.0252C5.43884 14.4529 6.19382 14.6668 7.00859 14.6668ZM9.53141 7.37516L8.12984 11.1668L4.48578 12.6252L5.88734 8.8335L9.53141 7.37516ZM7.00859 10.5835C7.16557 10.5835 7.29825 10.5271 7.40664 10.4143C7.51503 10.3016 7.56922 10.1635 7.56922 10.0002C7.56922 9.83683 7.51503 9.69877 7.40664 9.586C7.29825 9.47322 7.16557 9.41683 7.00859 9.41683C6.85162 9.41683 6.71894 9.47322 6.61055 9.586C6.50216 9.69877 6.44797 9.83683 6.44797 10.0002C6.44797 10.1635 6.50216 10.3016 6.61055 10.4143C6.71894 10.5271 6.85162 10.5835 7.00859 10.5835Z" fill="#D4AF37"/>
</svg>
