<svg width="19" height="28" viewBox="0 0 19 28" fill="none" xmlns="http://www.w3.org/2000/svg">
<path d="M14.772 15.5C13.5806 15.5 12.4756 15.815 11.4572 16.445C12.3315 17.505 12.9897 18.69 13.4317 20H14.772V15.5ZM11.8895 20C11.4187 18.83 10.7509 17.79 9.88619 16.88C9.02144 15.97 8.02698 15.27 6.90281 14.78C5.7402 14.26 4.51994 14 3.24203 14V20H11.8895ZM3.24203 12.5C4.59681 12.5 5.89874 12.755 7.14782 13.265C8.35847 13.755 9.45382 14.45 10.4339 15.35C11.068 14.91 11.7454 14.58 12.466 14.36C13.2155 14.12 13.9841 14 14.772 14V8H15.4927C15.6944 8 15.865 8.0725 16.0043 8.2175C16.1436 8.3625 16.2133 8.54 16.2133 8.75V20.75C16.2133 20.96 16.1436 21.1375 16.0043 21.2825C15.865 21.4275 15.6944 21.5 15.4927 21.5H2.52141C2.31963 21.5 2.14908 21.4275 2.00976 21.2825C1.87044 21.1375 1.80078 20.96 1.80078 20.75V8.75C1.80078 8.54 1.87044 8.3625 2.00976 8.2175C2.14908 8.0725 2.31963 8 2.52141 8H4.68328V6.5H6.12453V9.5H3.24203V12.5ZM13.3308 6.5V9.5H7.56578V8H11.8895V6.5H13.3308ZM12.2498 13.25C11.952 13.25 11.6974 13.14 11.486 12.92C11.2746 12.7 11.1689 12.435 11.1689 12.125C11.1689 11.815 11.2746 11.55 11.486 11.33C11.6974 11.11 11.952 11 12.2498 11C12.5477 11 12.8023 11.11 13.0137 11.33C13.2251 11.55 13.3308 11.815 13.3308 12.125C13.3308 12.435 13.2251 12.7 13.0137 12.92C12.8023 13.14 12.5477 13.25 12.2498 13.25Z" fill="#0B1226"/>
</svg>
