<svg width="17" height="24" viewBox="0 0 17 24" fill="none" xmlns="http://www.w3.org/2000/svg">
<path d="M1.59961 6.66667C1.59961 6.48 1.66148 6.32222 1.78521 6.19333C1.90894 6.06444 2.06041 6 2.23961 6H13.7596C13.9388 6 14.0903 6.06444 14.214 6.19333C14.3377 6.32222 14.3996 6.48 14.3996 6.66667V17.3333C14.3996 17.52 14.3377 17.6778 14.214 17.8067C14.0903 17.9356 13.9388 18 13.7596 18H2.23961C2.06041 18 1.90894 17.9356 1.78521 17.8067C1.66148 17.6778 1.59961 17.52 1.59961 17.3333V6.66667ZM2.87961 7.33333V16.6667H13.1196V7.33333H2.87961ZM7.11641 9.61333L10.2396 11.7733C10.2993 11.8178 10.3356 11.8756 10.3484 11.9467C10.3612 12.0178 10.3505 12.0844 10.3164 12.1467C10.2908 12.1733 10.2652 12.2 10.2396 12.2267L7.11641 14.3867C7.05668 14.4311 6.99268 14.4467 6.92441 14.4333C6.85614 14.42 6.80068 14.3822 6.75801 14.32C6.73241 14.2756 6.71961 14.2267 6.71961 14.1733V9.82667C6.71961 9.75556 6.74521 9.69333 6.79641 9.64C6.84761 9.58667 6.90734 9.56 6.97561 9.56C7.02681 9.56 7.07374 9.57778 7.11641 9.61333Z" fill="#374151"/>
</svg>
