<svg width="17" height="26" viewBox="0 0 17 26" fill="none" xmlns="http://www.w3.org/2000/svg">
<path d="M4.96703 5.73436C5.47941 5.73436 5.95584 5.86253 6.39631 6.11889C6.83678 6.37524 7.18511 6.72379 7.44131 7.16453C7.6975 7.60528 7.82559 8.082 7.82559 8.59471V11.4686H4.96703C4.44566 11.4686 3.96474 11.3404 3.52426 11.084C3.08379 10.8277 2.73546 10.4791 2.47927 10.0384C2.22308 9.59763 2.09498 9.11866 2.09498 8.60145C2.09498 8.08425 2.22308 7.60528 2.47927 7.16453C2.73546 6.72379 3.08379 6.37524 3.52426 6.11889C3.96474 5.86253 4.44116 5.73436 4.95355 5.73436H4.96703ZM6.47721 10.1193V8.59471C6.47721 8.32486 6.4098 8.07301 6.27496 7.83914C6.14012 7.60528 5.95584 7.42089 5.72212 7.28596C5.4884 7.15104 5.23446 7.08358 4.96029 7.08358C4.68612 7.08358 4.43217 7.15104 4.19845 7.28596C3.96474 7.42089 3.78046 7.60528 3.64562 7.83914C3.51078 8.07301 3.44336 8.32711 3.44336 8.60145C3.44336 8.8758 3.51078 9.1299 3.64562 9.36377C3.78046 9.59763 3.96474 9.78202 4.19845 9.91695C4.43217 10.0519 4.68387 10.1193 4.95355 10.1193H6.47721ZM4.96703 12.8178H7.82559V15.6781C7.82559 16.1998 7.6975 16.681 7.44131 17.1218C7.18511 17.5625 6.83678 17.9111 6.39631 18.1674C5.95584 18.4238 5.47717 18.552 4.96029 18.552C4.44341 18.552 3.96474 18.4238 3.52426 18.1674C3.08379 17.9111 2.73546 17.5625 2.47927 17.1218C2.22308 16.681 2.09498 16.2021 2.09498 15.6849C2.09498 15.1677 2.22308 14.6887 2.47927 14.2479C2.73546 13.8072 3.08379 13.4587 3.52426 13.2023C3.96474 12.946 4.44116 12.8178 4.95355 12.8178H4.96703ZM4.96703 14.167C4.68837 14.167 4.43217 14.2345 4.19845 14.3694C3.96474 14.5043 3.78046 14.6887 3.64562 14.9226C3.51078 15.1564 3.44336 15.4105 3.44336 15.6849C3.44336 15.9592 3.51078 16.2133 3.64562 16.4472C3.78046 16.681 3.96474 16.8654 4.19845 17.0004C4.43217 17.1353 4.68612 17.2027 4.96029 17.2027C5.23446 17.2027 5.4884 17.1353 5.72212 17.0004C5.95584 16.8654 6.14012 16.681 6.27496 16.4472C6.4098 16.2133 6.47721 15.957 6.47721 15.6781V14.167H4.96703ZM12.046 5.73436C12.5584 5.73436 13.0348 5.86253 13.4753 6.11889C13.9158 6.37524 14.2641 6.72379 14.5203 7.16453C14.7765 7.60528 14.9046 8.08425 14.9046 8.60145C14.9046 9.11866 14.7765 9.59763 14.5203 10.0384C14.2641 10.4791 13.9158 10.8277 13.4753 11.084C13.0348 11.3404 12.5539 11.4686 12.0325 11.4686H9.17397V8.59471C9.17397 8.082 9.30207 7.60528 9.55826 7.16453C9.81445 6.72379 10.1628 6.37524 10.6033 6.11889C11.0437 5.86253 11.5246 5.73436 12.046 5.73436ZM12.046 10.1193C12.3157 10.1193 12.5674 10.0519 12.8011 9.91695C13.0348 9.78202 13.2191 9.59763 13.3539 9.36377C13.4888 9.1299 13.5562 8.8758 13.5562 8.60145C13.5562 8.32711 13.4888 8.07301 13.3539 7.83914C13.2191 7.60528 13.0348 7.42089 12.8011 7.28596C12.5674 7.15104 12.3134 7.08358 12.0393 7.08358C11.7651 7.08358 11.5112 7.15104 11.2774 7.28596C11.0437 7.42089 10.8594 7.60528 10.7246 7.83914C10.5898 8.07301 10.5224 8.32486 10.5224 8.59471V10.1193H12.046ZM9.17397 12.8178H12.046C12.5584 12.8178 13.0348 12.946 13.4753 13.2023C13.9158 13.4587 14.2641 13.8072 14.5203 14.2479C14.7765 14.6887 14.9046 15.1677 14.9046 15.6849C14.9046 16.2021 14.7765 16.681 14.5203 17.1218C14.2641 17.5625 13.9158 17.9111 13.4753 18.1674C13.0348 18.4238 12.5562 18.552 12.0393 18.552C11.5224 18.552 11.0437 18.4238 10.6033 18.1674C10.1628 17.9111 9.81445 17.5625 9.55826 17.1218C9.30207 16.681 9.17397 16.1998 9.17397 15.6781V12.8178ZM10.5224 14.167V15.6781C10.5224 15.957 10.5898 16.2133 10.7246 16.4472C10.8594 16.681 11.0437 16.8654 11.2774 17.0004C11.5112 17.1353 11.7651 17.2027 12.0393 17.2027C12.3134 17.2027 12.5674 17.1353 12.8011 17.0004C13.0348 16.8654 13.2191 16.681 13.3539 16.4472C13.4888 16.2133 13.5562 15.9592 13.5562 15.6849C13.5562 15.4105 13.4888 15.1564 13.3539 14.9226C13.2191 14.6887 13.0348 14.5043 12.8011 14.3694C12.5674 14.2345 12.3157 14.167 12.046 14.167H10.5224Z" fill="white"/>
</svg>
