<svg width="768" height="72" viewBox="0 0 768 72" fill="none" xmlns="http://www.w3.org/2000/svg">
<path d="M204 12C204 5.37258 209.373 0 216 0H240C246.627 0 252 5.37258 252 12V36C252 42.6274 246.627 48 240 48H216C209.373 48 204 42.6274 204 36V12Z" fill="#0B1226"/>
<path d="M221.985 24.6335C221.985 23.2446 222.225 21.9168 222.705 20.6501C223.174 19.4279 223.833 18.3529 224.681 17.4251C225.529 16.4974 226.497 15.7946 227.585 15.3168C228.673 15.7946 229.641 16.4974 230.489 17.4251C231.337 18.3529 231.996 19.4279 232.465 20.6501C232.945 21.9168 233.185 23.2446 233.185 24.6335C233.185 25.3112 233.126 25.9779 233.009 26.6335L234.561 28.1501C234.625 28.2168 234.665 28.2974 234.681 28.3918C234.697 28.4862 234.684 28.5779 234.641 28.6668L232.641 32.4668C232.588 32.5668 232.508 32.6335 232.401 32.6668C232.294 32.7001 232.193 32.689 232.097 32.6335C232.065 32.6224 232.033 32.6001 232.001 32.5668L230.225 30.7001C230.065 30.5446 229.873 30.4668 229.649 30.4668H225.521C225.297 30.4668 225.105 30.5446 224.945 30.7001L223.169 32.5668C223.084 32.6446 222.988 32.6835 222.881 32.6835C222.774 32.6835 222.678 32.6446 222.593 32.5668C222.572 32.5446 222.55 32.5112 222.529 32.4668L220.529 28.6668C220.486 28.5779 220.473 28.4862 220.489 28.3918C220.505 28.2974 220.545 28.2168 220.609 28.1501L222.161 26.6335C222.044 25.9779 221.985 25.3112 221.985 24.6335ZM223.169 30.2001L223.825 29.5335C224.049 29.3001 224.308 29.1196 224.601 28.9918C224.894 28.864 225.201 28.8001 225.521 28.8001H229.649C229.969 28.8001 230.276 28.864 230.569 28.9918C230.862 29.1196 231.121 29.3001 231.345 29.5335L232.001 30.2001L232.785 28.7001L231.905 27.8501C231.713 27.6501 231.574 27.4168 231.489 27.1501C231.404 26.8835 231.388 26.6112 231.441 26.3335C231.537 25.7668 231.585 25.2001 231.585 24.6335C231.585 23.5668 231.42 22.5446 231.089 21.5668C230.758 20.6112 230.292 19.7529 229.689 18.9918C229.086 18.2307 228.385 17.6224 227.585 17.1668C226.785 17.6224 226.084 18.2307 225.481 18.9918C224.878 19.7529 224.412 20.6112 224.081 21.5668C223.75 22.5446 223.585 23.5668 223.585 24.6335C223.585 25.2001 223.633 25.7668 223.729 26.3335C223.782 26.6112 223.766 26.8835 223.681 27.1501C223.596 27.4168 223.457 27.6501 223.265 27.8501L222.385 28.7001L223.169 30.2001ZM227.585 24.6335C227.297 24.6335 227.03 24.5585 226.785 24.4085C226.54 24.2585 226.345 24.0557 226.201 23.8001C226.057 23.5446 225.985 23.2668 225.985 22.9668C225.985 22.6668 226.057 22.389 226.201 22.1335C226.345 21.8779 226.54 21.6751 226.785 21.5251C227.03 21.3751 227.297 21.3001 227.585 21.3001C227.873 21.3001 228.14 21.3751 228.385 21.5251C228.63 21.6751 228.825 21.8779 228.969 22.1335C229.113 22.389 229.185 22.6668 229.185 22.9668C229.185 23.2668 229.113 23.5446 228.969 23.8001C228.825 24.0557 228.63 24.2585 228.385 24.4085C228.14 24.5585 227.873 24.6335 227.585 24.6335Z" fill="white"/>
<path d="M275.488 23H287.18V25H275.488L280.652 30.36L279.289 31.78L271.82 24L279.289 16.22L280.652 17.64L275.488 23Z" fill="#9CA3AF"/>
<path d="M308 12C308 5.37258 313.373 0 320 0H344C350.627 0 356 5.37258 356 12V36C356 42.6274 350.627 48 344 48H320C313.373 48 308 42.6274 308 36V12Z" fill="#0B1226"/>
<g clip-path="url(#clip0_16_5825)">
<path d="M341.186 24L336.658 28.7167L335.522 27.5333L338.93 24L335.522 20.4667L336.658 19.2833L341.186 24ZM324.242 24L327.65 27.5333L326.514 28.7167L321.986 24L326.514 19.2833L327.65 20.4667L324.242 24ZM329.81 31.5H328.114L333.362 16.5H335.058L329.81 31.5Z" fill="white"/>
</g>
<path d="M382.539 23V17H384.459V23H390.219V25H384.459V31H382.539V25H376.779V23H382.539Z" fill="#9CA3AF"/>
<path d="M412 12C412 5.37258 417.373 0 424 0H448C454.627 0 460 5.37258 460 12V36C460 42.6274 454.627 48 448 48H424C417.373 48 412 42.6274 412 36V12Z" fill="#0B1226"/>
<path d="M432.593 27.7501C432.785 27.7834 432.982 27.8167 433.185 27.8501C433.686 27.9501 434.193 28.0667 434.705 28.2001C435.43 28.389 436.108 28.6001 436.737 28.8334C437.526 29.1223 438.225 29.439 438.833 29.7834C439.548 30.1834 440.134 30.6167 440.593 31.0834H441.393C441.606 31.0834 441.79 31.0029 441.945 30.8417C442.1 30.6806 442.177 30.4834 442.177 30.2501V25.2001C442.529 25.1001 442.82 24.9029 443.049 24.6084C443.278 24.314 443.39 23.9723 443.385 23.5834C443.38 23.1945 443.265 22.8529 443.041 22.5584C442.817 22.264 442.534 22.0667 442.193 21.9667V16.9167C442.193 16.6834 442.113 16.4862 441.953 16.3251C441.793 16.164 441.601 16.0834 441.377 16.0834H440.593C440.145 16.5501 439.558 16.9834 438.833 17.3834C438.225 17.7279 437.526 18.0445 436.737 18.3334C436.108 18.5667 435.43 18.7779 434.705 18.9667C434.193 19.1001 433.686 19.2167 433.185 19.3167L432.593 19.4167H429.393C429.094 19.4167 428.822 19.4917 428.577 19.6417C428.332 19.7917 428.14 19.9945 428.001 20.2501C427.862 20.5056 427.793 20.7834 427.793 21.0834V26.0834C427.793 26.3834 427.862 26.6612 428.001 26.9167C428.14 27.1723 428.332 27.3751 428.577 27.5251C428.822 27.6751 429.089 27.7501 429.377 27.7501H430.193L430.993 31.9167H432.593V27.7501ZM434.193 20.8001C434.854 20.6556 435.5 20.4834 436.129 20.2834C437.964 19.7279 439.446 19.0445 440.577 18.2334V28.9334C439.446 28.1223 437.964 27.439 436.129 26.8834C435.5 26.6834 434.849 26.5112 434.177 26.3667V20.8001H434.193ZM429.393 21.0834H432.593V26.0834H429.393V21.0834Z" fill="white"/>
<path d="M486.539 23V17H488.459V23H494.219V25H488.459V31H486.539V25H480.779V23H486.539Z" fill="#9CA3AF"/>
<path d="M516 12C516 5.37258 521.373 0 528 0H552C558.627 0 564 5.37258 564 12V36C564 42.6274 558.627 48 552 48H528C521.373 48 516 42.6274 516 36V12Z" fill="#0B1226"/>
<path d="M533.698 16.5V29.8333H546.498V31.5H532.098V16.5H533.698ZM545.938 19.25L547.074 20.4167L542.498 25.1833L540.098 22.6833L536.674 26.25L535.538 25.0833L540.098 20.3167L542.498 22.8167L545.938 19.25Z" fill="white"/>
<defs>
<clipPath id="clip0_16_5825">
<rect width="20" height="20" fill="white" transform="translate(321.586 14)"/>
</clipPath>
</defs>
</svg>
