<svg width="168" height="52" viewBox="0 0 168 52" fill="none" xmlns="http://www.w3.org/2000/svg">
<path d="M64 8C64 3.58172 67.5817 0 72 0H96C100.418 0 104 3.58172 104 8V32C104 36.4183 100.418 40 96 40H72C67.5817 40 64 36.4183 64 32V8Z" fill="#0B1226" fill-opacity="0.1"/>
<path d="M83.6319 25.1745L78.5443 28.1445L79.6829 22.1895L75.4023 18.0795L81.1962 17.3595L83.6319 11.8545L86.0676 17.3595L91.8614 18.0795L87.5809 22.1895L88.7195 28.1445L83.6319 25.1745ZM83.6319 23.4645L86.6873 25.2495L86.0099 21.6645L88.5898 19.1895L85.102 18.7545L83.6319 15.4395L82.1618 18.7545L78.674 19.1895L81.2538 21.6645L80.5764 25.2495L83.6319 23.4645Z" fill="#0B1226"/>
</svg>
