<svg width="1024" height="28" viewBox="0 0 1024 28" fill="none" xmlns="http://www.w3.org/2000/svg">
<path d="M468 26C468 24.8954 468.895 24 470 24H474C475.105 24 476 24.8954 476 26C476 27.1046 475.105 28 474 28H470C468.895 28 468 27.1046 468 26Z" fill="#D1D5DB"/>
<path d="M482 26C482 24.8954 482.895 24 484 24H488C489.105 24 490 24.8954 490 26C490 27.1046 489.105 28 488 28H484C482.895 28 482 27.1046 482 26Z" fill="#D1D5DB"/>
<path d="M496 26C496 24.8954 496.895 24 498 24H502C503.105 24 504 24.8954 504 26C504 27.1046 503.105 28 502 28H498C496.895 28 496 27.1046 496 26Z" fill="#D1D5DB"/>
<path d="M510 26C510 24.8954 510.895 24 512 24H540C541.105 24 542 24.8954 542 26C542 27.1046 541.105 28 540 28H512C510.895 28 510 27.1046 510 26Z" fill="#0B1226"/>
<path d="M548 26C548 24.8954 548.895 24 550 24H554C555.105 24 556 24.8954 556 26C556 27.1046 555.105 28 554 28H550C548.895 28 548 27.1046 548 26Z" fill="#D1D5DB"/>
</svg>
