<svg width="56" height="80" viewBox="0 0 56 80" fill="none" xmlns="http://www.w3.org/2000/svg">
<path d="M0 12C0 5.37258 5.37258 0 12 0H44C50.6274 0 56 5.37258 56 12V44C56 50.6274 50.6274 56 44 56H12C5.37258 56 0 50.6274 0 44V12Z" fill="#0B1226"/>
<path d="M35.6219 24H36.6395C36.9851 24 37.3051 24.09 37.5995 24.27C37.8939 24.45 38.1275 24.6933 38.3003 25C38.4731 25.3067 38.5595 25.64 38.5595 26V30C38.5595 30.36 38.4731 30.6933 38.3003 31C38.1275 31.3067 37.8939 31.55 37.5995 31.73C37.3051 31.91 36.9851 32 36.6395 32H35.6219C35.4683 33.3067 35.0331 34.4933 34.3163 35.56C33.5995 36.6267 32.6971 37.46 31.6091 38.06C30.4827 38.6867 29.2795 39 27.9995 39V37C29.0363 37 30.0027 36.7267 30.8987 36.18C31.7691 35.6467 32.4603 34.9267 32.9723 34.02C33.4971 33.0867 33.7595 32.08 33.7595 31V25C33.7595 23.92 33.4971 22.9133 32.9723 21.98C32.4603 21.0733 31.7691 20.3533 30.8987 19.82C30.0027 19.2733 29.0363 19 27.9995 19C26.9627 19 25.9963 19.2733 25.1003 19.82C24.2299 20.3533 23.5387 21.0733 23.0267 21.98C22.5019 22.9133 22.2395 23.92 22.2395 25V32H19.3595C19.0139 32 18.6939 31.91 18.3995 31.73C18.1051 31.55 17.8715 31.3067 17.6987 31C17.5259 30.6933 17.4395 30.36 17.4395 30V26C17.4395 25.64 17.5259 25.3067 17.6987 25C17.8715 24.6933 18.1051 24.45 18.3995 24.27C18.6939 24.09 19.0139 24 19.3595 24H20.3771C20.5307 22.6933 20.9659 21.5067 21.6827 20.44C22.3995 19.3733 23.3019 18.54 24.3899 17.94C25.5163 17.3133 26.7195 17 27.9995 17C29.2795 17 30.4827 17.3133 31.6091 17.94C32.6971 18.54 33.5995 19.3733 34.3163 20.44C35.0331 21.5067 35.4683 22.6933 35.6219 24ZM19.3595 26V30H20.3195V26H19.3595ZM35.6795 26V30H36.6395V26H35.6795ZM23.9291 31.78L24.9467 30.08C25.8811 30.6933 26.8987 31 27.9995 31C29.1003 31 30.1179 30.6933 31.0523 30.08L32.0699 31.78C31.4683 32.18 30.8219 32.4833 30.1307 32.69C29.4395 32.8967 28.7291 33 27.9995 33C27.2699 33 26.5595 32.8967 25.8683 32.69C25.1771 32.4833 24.5307 32.18 23.9291 31.78Z" fill="white"/>
</svg>
