<svg width="168" height="52" viewBox="0 0 168 52" fill="none" xmlns="http://www.w3.org/2000/svg">
<path d="M64 8C64 3.58172 67.5817 0 72 0H96C100.418 0 104 3.58172 104 8V32C104 36.4183 100.418 40 96 40H72C67.5817 40 64 36.4183 64 32V8Z" fill="#0B1226" fill-opacity="0.1"/>
<path d="M83.632 14C84.6025 14 85.5153 14.24 86.3704 14.72C87.1967 15.18 87.8741 15.815 88.4026 16.625H86.5145V18.125H90.8383V13.625H89.397V15.5C88.7244 14.57 87.8933 13.84 86.9037 13.31C85.8852 12.77 84.7946 12.5 83.632 12.5C82.652 12.5 81.7152 12.695 80.8216 13.085C79.9665 13.465 79.205 14.0025 78.5372 14.6975C77.8694 15.3925 77.353 16.185 76.9879 17.075C76.6131 18.005 76.4258 18.98 76.4258 20H77.867C77.867 18.91 78.1313 17.9 78.6597 16.97C79.169 16.07 79.856 15.355 80.7207 14.825C81.6143 14.275 82.5847 14 83.632 14ZM89.397 20C89.397 21.09 89.1328 22.1 88.6043 23.03C88.0951 23.93 87.4081 24.645 86.5434 25.175C85.6498 25.725 84.6793 26 83.632 26C82.6616 26 81.7488 25.76 80.8937 25.28C80.0673 24.82 79.39 24.185 78.8615 23.375H80.7495V21.875H76.4258V26.375H77.867V24.5C78.5396 25.43 79.3707 26.16 80.3604 26.69C81.3789 27.23 82.4694 27.5 83.632 27.5C84.6121 27.5 85.5489 27.305 86.4425 26.915C87.2976 26.535 88.0591 25.9975 88.7268 25.3025C89.3946 24.6075 89.9111 23.815 90.2762 22.925C90.6509 21.995 90.8383 21.02 90.8383 20H89.397Z" fill="#0B1226"/>
</svg>
