<svg width="56" height="80" viewBox="0 0 56 80" fill="none" xmlns="http://www.w3.org/2000/svg">
<path d="M0 12C0 5.37258 5.37258 0 12 0H44C50.6274 0 56 5.37258 56 12V44C56 50.6274 50.6274 56 44 56H12C5.37258 56 0 50.6274 0 44V12Z" fill="#0B1226"/>
<path d="M21.2796 28.7604C21.2796 27.0937 21.5676 25.5004 22.1436 23.9804C22.7068 22.5137 23.4972 21.2237 24.5148 20.1103C25.5324 18.997 26.694 18.1537 27.9996 17.5804C29.3052 18.1537 30.4668 18.997 31.4844 20.1103C32.502 21.2237 33.2924 22.5137 33.8556 23.9804C34.4316 25.5004 34.7196 27.0937 34.7196 28.7604C34.7196 29.5737 34.6492 30.3737 34.5084 31.1604L36.3708 32.9804C36.4476 33.0604 36.4956 33.157 36.5148 33.2704C36.534 33.3837 36.518 33.4937 36.4668 33.6004L34.0668 38.1604C34.0028 38.2804 33.9068 38.3604 33.7788 38.4004C33.6508 38.4404 33.5292 38.427 33.414 38.3604C33.3756 38.347 33.3372 38.3204 33.2988 38.2804L31.1676 36.0404C30.9756 35.8537 30.7452 35.7604 30.4764 35.7604H25.5228C25.254 35.7604 25.0236 35.8537 24.8316 36.0404L22.7004 38.2804C22.598 38.3737 22.4828 38.4204 22.3548 38.4204C22.2268 38.4204 22.1116 38.3737 22.0092 38.2804C21.9836 38.2537 21.958 38.2137 21.9324 38.1604L19.5324 33.6004C19.4812 33.4937 19.4652 33.3837 19.4844 33.2704C19.5036 33.157 19.5516 33.0604 19.6284 32.9804L21.4908 31.1604C21.35 30.3737 21.2796 29.5737 21.2796 28.7604ZM22.7004 35.4404L23.4876 34.6404C23.7564 34.3604 24.0668 34.1437 24.4188 33.9904C24.7708 33.837 25.1388 33.7604 25.5228 33.7604H30.4764C30.8604 33.7604 31.2284 33.837 31.5804 33.9904C31.9324 34.1437 32.2428 34.3604 32.5116 34.6404L33.2988 35.4404L34.2396 33.6404L33.1836 32.6204C32.9532 32.3804 32.7868 32.1004 32.6844 31.7804C32.582 31.4604 32.5628 31.1337 32.6268 30.8004C32.742 30.1204 32.7996 29.4404 32.7996 28.7604C32.7996 27.4804 32.6012 26.2537 32.2044 25.0804C31.8076 23.9337 31.2476 22.9037 30.5244 21.9904C29.8012 21.077 28.9596 20.347 27.9996 19.8004C27.0396 20.347 26.198 21.077 25.4748 21.9904C24.7516 22.9037 24.1916 23.9337 23.7948 25.0804C23.398 26.2537 23.1996 27.4804 23.1996 28.7604C23.1996 29.4404 23.2572 30.1204 23.3724 30.8004C23.4364 31.1337 23.4172 31.4604 23.3148 31.7804C23.2124 32.1004 23.046 32.3804 22.8156 32.6204L21.7596 33.6404L22.7004 35.4404ZM27.9996 28.7604C27.654 28.7604 27.334 28.6704 27.0396 28.4904C26.7452 28.3104 26.5116 28.067 26.3388 27.7604C26.166 27.4537 26.0796 27.1204 26.0796 26.7604C26.0796 26.4004 26.166 26.067 26.3388 25.7604C26.5116 25.4537 26.7452 25.2104 27.0396 25.0304C27.334 24.8504 27.654 24.7604 27.9996 24.7604C28.3452 24.7604 28.6652 24.8504 28.9596 25.0304C29.254 25.2104 29.4876 25.4537 29.6604 25.7604C29.8332 26.067 29.9196 26.4004 29.9196 26.7604C29.9196 27.1204 29.8332 27.4537 29.6604 27.7604C29.4876 28.067 29.254 28.3104 28.9596 28.4904C28.6652 28.6704 28.3452 28.7604 27.9996 28.7604Z" fill="white"/>
</svg>
