<svg width="56" height="80" viewBox="0 0 56 80" fill="none" xmlns="http://www.w3.org/2000/svg">
<path d="M0 12C0 5.37258 5.37258 0 12 0H44C50.6274 0 56 5.37258 56 12V44C56 50.6274 50.6274 56 44 56H12C5.37258 56 0 50.6274 0 44V12Z" fill="#0B1226"/>
<path d="M26.0611 33.5H29.9395C30.0035 32.9267 30.1827 32.3667 30.4771 31.82C30.7331 31.3267 31.1107 30.7933 31.6099 30.22L31.8787 29.92C32.2499 29.52 32.4547 29.3 32.4931 29.26C32.9027 28.7267 33.2163 28.14 33.4339 27.5C33.6515 26.86 33.7603 26.1933 33.7603 25.5C33.7603 24.42 33.4979 23.4133 32.9731 22.48C32.4611 21.5733 31.7699 20.8533 30.8995 20.32C30.0035 19.7733 29.0371 19.5 28.0003 19.5C26.9635 19.5 25.9971 19.7733 25.1011 20.32C24.2307 20.8533 23.5395 21.5733 23.0275 22.48C22.5027 23.4133 22.2403 24.42 22.2403 25.5C22.2403 26.1933 22.3491 26.86 22.5667 27.5C22.7843 28.14 23.0979 28.72 23.5075 29.24C23.5459 29.2933 23.7507 29.52 24.1219 29.92L24.3907 30.22C24.8899 30.7933 25.2675 31.3267 25.5235 31.82C25.8179 32.3667 25.9971 32.9267 26.0611 33.5ZM29.9203 35.5H26.0803V36.5H29.9203V35.5ZM22.0099 30.5C21.4723 29.8067 21.0563 29.04 20.7619 28.2C20.4675 27.3333 20.3203 26.4333 20.3203 25.5C20.3203 24.0467 20.6723 22.7 21.3763 21.46C22.0547 20.26 22.9699 19.3067 24.1219 18.6C25.3123 17.8667 26.6051 17.5 28.0003 17.5C29.3955 17.5 30.6883 17.8667 31.8787 18.6C33.0307 19.3067 33.9459 20.26 34.6243 21.46C35.3283 22.7 35.6803 24.0467 35.6803 25.5C35.6803 26.4333 35.5331 27.3333 35.2387 28.2C34.9443 29.04 34.5283 29.8067 33.9907 30.5C33.9011 30.62 33.7219 30.82 33.4531 31.1C32.9539 31.6467 32.6019 32.08 32.3971 32.4C32.0259 32.96 31.8403 33.4933 31.8403 34V36.5C31.8403 36.86 31.7539 37.1933 31.5811 37.5C31.4083 37.8067 31.1747 38.05 30.8803 38.23C30.5859 38.41 30.2659 38.5 29.9203 38.5H26.0803C25.7347 38.5 25.4147 38.41 25.1203 38.23C24.8259 38.05 24.5923 37.8067 24.4195 37.5C24.2467 37.1933 24.1603 36.86 24.1603 36.5V34C24.1603 33.4933 23.9747 32.96 23.6035 32.4C23.3987 32.08 23.0467 31.6467 22.5475 31.1C22.2787 30.82 22.0995 30.62 22.0099 30.5ZM28.9603 25.5H31.3603L27.0403 31.5V27.5H24.6403L28.9603 21.5V25.5Z" fill="white"/>
</svg>
