<svg width="56" height="80" viewBox="0 0 56 80" fill="none" xmlns="http://www.w3.org/2000/svg">
<path d="M0 12C0 5.37258 5.37258 0 12 0H44C50.6274 0 56 5.37258 56 12V44C56 50.6274 50.6274 56 44 56H12C5.37258 56 0 50.6274 0 44V12Z" fill="#0B1226"/>
<path d="M20.7044 30.52L23.9684 27.12L26.6948 29.94L29.7284 26.8L28.0004 25H32.8004V30L31.0724 28.2L26.6948 32.78L23.9684 29.94L21.6068 32.42C22.298 33.5267 23.2004 34.3933 24.314 35.02C25.4532 35.6733 26.682 36 28.0004 36C29.3956 36 30.6884 35.6333 31.8788 34.9C33.0308 34.1933 33.946 33.24 34.6244 32.04C35.3284 30.8 35.6804 29.4533 35.6804 28C35.6804 26.5467 35.3284 25.2 34.6244 23.96C33.946 22.76 33.0308 21.8067 31.8788 21.1C30.6884 20.3667 29.3956 20 28.0004 20C26.6052 20 25.3124 20.3667 24.122 21.1C22.97 21.8067 22.0548 22.76 21.3764 23.96C20.6724 25.2 20.3204 26.5467 20.3204 28C20.3204 28.8667 20.4484 29.7067 20.7044 30.52ZM19.226 32.08V32.06C18.6756 30.78 18.4004 29.4267 18.4004 28C18.4004 26.64 18.65 25.34 19.1492 24.1C19.6356 22.9133 20.3236 21.8567 21.2132 20.93C22.1028 20.0033 23.1172 19.2867 24.2564 18.78C25.4468 18.26 26.6948 18 28.0004 18C29.306 18 30.554 18.26 31.7444 18.78C32.8836 19.2867 33.898 20.0033 34.7876 20.93C35.6772 21.8567 36.3652 22.9133 36.8516 24.1C37.3508 25.34 37.6004 26.64 37.6004 28C37.6004 29.36 37.3508 30.66 36.8516 31.9C36.3652 33.0867 35.6772 34.1433 34.7876 35.07C33.898 35.9967 32.8836 36.7133 31.7444 37.22C30.554 37.74 29.3124 38 28.0196 38C26.7268 38 25.498 37.7467 24.3332 37.24C23.194 36.7467 22.1828 36.0533 21.2996 35.16C20.4164 34.2667 19.7252 33.24 19.226 32.08Z" fill="white"/>
</svg>
