<svg width="56" height="80" viewBox="0 0 56 80" fill="none" xmlns="http://www.w3.org/2000/svg">
<path d="M0 12C0 5.37258 5.37258 0 12 0H44C50.6274 0 56 5.37258 56 12V44C56 50.6274 50.6274 56 44 56H12C5.37258 56 0 50.6274 0 44V12Z" fill="#0B1226"/>
<path d="M27.9994 17L35.8906 18.82C36.1082 18.8733 36.2874 18.9933 36.4282 19.18C36.569 19.3667 36.6394 19.5733 36.6394 19.8V29.78C36.6394 30.7933 36.4122 31.74 35.9578 32.62C35.5034 33.5 34.873 34.22 34.0666 34.78L27.9994 39L21.9322 34.78C21.1258 34.22 20.4954 33.5 20.041 32.62C19.5866 31.74 19.3594 30.7933 19.3594 29.78V19.8C19.3594 19.5733 19.4298 19.3667 19.5706 19.18C19.7114 18.9933 19.8906 18.8733 20.1082 18.82L27.9994 17ZM27.9994 19.04L21.2794 20.6V29.78C21.2794 30.46 21.4298 31.0933 21.7306 31.68C22.0314 32.2667 22.4506 32.7467 22.9882 33.12L27.9994 36.6L33.0106 33.12C33.5482 32.7467 33.9674 32.2667 34.2682 31.68C34.569 31.0933 34.7194 30.46 34.7194 29.78V20.6L27.9994 19.04ZM32.281 24.22L33.625 25.64L27.5194 32L23.449 27.76L24.8122 26.34L27.5194 29.18L32.281 24.22Z" fill="white"/>
</svg>
