<svg width="168" height="52" viewBox="0 0 168 52" fill="none" xmlns="http://www.w3.org/2000/svg">
<path d="M64 8C64 3.58172 67.5817 0 72 0H96C100.418 0 104 3.58172 104 8V32C104 36.4183 100.418 40 96 40H72C67.5817 40 64 36.4183 64 32V8Z" fill="#0B1226" fill-opacity="0.1"/>
<path d="M83.6334 14.2097C84.1907 13.6897 84.8296 13.3472 85.5503 13.1822C86.2709 13.0172 86.9819 13.0347 87.6833 13.2347C88.4135 13.4447 89.0453 13.8272 89.5785 14.3822C90.1118 14.9372 90.4793 15.5947 90.6811 16.3547C90.8733 17.0847 90.8901 17.8222 90.7315 18.5672C90.573 19.3122 90.2439 19.9797 89.7443 20.5697L83.6334 26.9297L77.5225 20.5697C77.0229 19.9797 76.6938 19.3122 76.5352 18.5672C76.3767 17.8222 76.3935 17.0847 76.5857 16.3547C76.7875 15.5947 77.1574 14.9372 77.6954 14.3822C78.2335 13.8272 78.8629 13.4447 79.5835 13.2347C80.2849 13.0347 80.9959 13.0172 81.7165 13.1822C82.4372 13.3472 83.0761 13.6897 83.6334 14.2097ZM88.5481 15.4397C88.1925 15.0697 87.7794 14.8172 87.3086 14.6822C86.8378 14.5472 86.3622 14.5347 85.8817 14.6447C85.4013 14.7547 84.9738 14.9847 84.599 15.3347L83.6334 16.2347L82.6678 15.3347C82.3026 14.9847 81.8775 14.7547 81.3922 14.6447C80.907 14.5347 80.429 14.5472 79.9582 14.6822C79.4874 14.8172 79.0742 15.0697 78.7187 15.4397C78.3632 15.8097 78.1182 16.2397 77.9837 16.7297C77.8492 17.2197 77.8324 17.7122 77.9332 18.2072C78.0341 18.7022 78.2479 19.1447 78.5746 19.5347L83.6334 24.8147L88.6922 19.5347C89.0189 19.1447 89.2326 18.7022 89.3335 18.2072C89.4344 17.7122 89.4176 17.2197 89.2831 16.7297C89.1486 16.2397 88.9036 15.8097 88.5481 15.4397Z" fill="#0B1226"/>
</svg>
