<svg width="80" height="104" viewBox="0 0 80 104" fill="none" xmlns="http://www.w3.org/2000/svg">
<path d="M0 16C0 7.16344 7.16344 0 16 0H64C72.8366 0 80 7.16344 80 16V64C80 72.8366 72.8366 80 64 80H16C7.16344 80 0 72.8366 0 64V16Z" fill="#0B1226"/>
<path d="M57.2807 40L49.1303 48.49L47.0855 46.36L53.2199 40L47.0855 33.64L49.1303 31.51L57.2807 40ZM26.7815 40L32.9159 46.36L30.8711 48.49L22.7207 40L30.8711 31.51L32.9159 33.64L26.7815 40ZM36.8039 53.5H33.7511L43.1975 26.5H46.2503L36.8039 53.5Z" fill="white"/>
</svg>
