<svg width="88" height="112" viewBox="0 0 88 112" fill="none" xmlns="http://www.w3.org/2000/svg">
<g filter="url(#filter0_d_16_5988)">
<path d="M4 16C4 7.16344 11.1634 0 20 0H68C76.8366 0 84 7.16344 84 16V64C84 72.8366 76.8366 80 68 80H20C11.1634 80 4 72.8366 4 64V16Z" fill="#D4AF37"/>
<path d="M33.4015 26.5V50.5H56.4415V53.5H30.5215V26.5H33.4015ZM55.4335 31.45L57.4783 33.55L49.2415 42.13L44.9215 37.63L38.7583 44.05L36.7135 41.95L44.9215 33.37L49.2415 37.87L55.4335 31.45Z" fill="white"/>
</g>
<defs>
<filter id="filter0_d_16_5988" x="0" y="0" width="88" height="92" filterUnits="userSpaceOnUse" color-interpolation-filters="sRGB">
<feFlood flood-opacity="0" result="BackgroundImageFix"/>
<feColorMatrix in="SourceAlpha" type="matrix" values="0 0 0 0 0 0 0 0 0 0 0 0 0 0 0 0 0 0 127 0" result="hardAlpha"/>
<feMorphology radius="6" operator="erode" in="SourceAlpha" result="effect1_dropShadow_16_5988"/>
<feOffset dy="8"/>
<feGaussianBlur stdDeviation="5"/>
<feComposite in2="hardAlpha" operator="out"/>
<feColorMatrix type="matrix" values="0 0 0 0 0.0431373 0 0 0 0 0.258824 0 0 0 0 0.960784 0 0 0 0.2 0"/>
<feBlend mode="normal" in2="BackgroundImageFix" result="effect1_dropShadow_16_5988"/>
<feBlend mode="normal" in="SourceGraphic" in2="effect1_dropShadow_16_5988" result="shape"/>
</filter>
</defs>
</svg>
