<svg width="168" height="52" viewBox="0 0 168 52" fill="none" xmlns="http://www.w3.org/2000/svg">
<path d="M64 8C64 3.58172 67.5817 0 72 0H96C100.418 0 104 3.58172 104 8V32C104 36.4183 100.418 40 96 40H72C67.5817 40 64 36.4183 64 32V8Z" fill="#0B1226" fill-opacity="0.1"/>
<path d="M83.632 19.25C84.2854 19.25 84.8883 19.4175 85.4408 19.7525C85.9933 20.0875 86.4305 20.5425 86.7523 21.1175C87.0742 21.6925 87.2352 22.32 87.2352 23V27.5H85.7939V23C85.7939 22.61 85.7026 22.2475 85.5201 21.9125C85.3375 21.5775 85.0925 21.3075 84.785 21.1025C84.4776 20.8975 84.1365 20.78 83.7617 20.75H83.632C83.2573 20.75 82.909 20.845 82.5871 21.035C82.2652 21.225 82.0058 21.48 81.8088 21.8C81.6119 22.12 81.499 22.475 81.4702 22.865V27.5H80.0289V23C80.0289 22.32 80.1898 21.6925 80.5117 21.1175C80.8336 20.5425 81.2708 20.0875 81.8233 19.7525C82.3757 19.4175 82.9787 19.25 83.632 19.25ZM78.948 21.5C79.1497 21.5 79.3467 21.525 79.5389 21.575C79.414 21.955 79.3371 22.345 79.3083 22.745V23.06C79.2218 23.03 79.1353 23.01 79.0489 23H78.948C78.6693 23 78.4267 23.0975 78.2201 23.2925C78.0136 23.4875 77.8959 23.73 77.867 24.02V24.125V27.5H76.4258V24.125C76.4258 23.645 76.5387 23.205 76.7645 22.805C76.9903 22.405 77.2953 22.0875 77.6797 21.8525C78.064 21.6175 78.4868 21.5 78.948 21.5ZM88.3161 21.5C88.7773 21.5 89.2001 21.6175 89.5844 21.8525C89.9687 22.0875 90.2738 22.405 90.4996 22.805C90.7254 23.205 90.8383 23.645 90.8383 24.125V27.5H89.397V24.125C89.397 23.835 89.3033 23.5825 89.116 23.3675C88.9286 23.1525 88.6956 23.03 88.417 23H88.3161C88.1912 23 88.0711 23.02 87.9558 23.06V23C87.9558 22.51 87.8837 22.035 87.7396 21.575C87.9222 21.525 88.1143 21.5 88.3161 21.5ZM78.948 17C79.2747 17 79.5749 17.085 79.8487 17.255C80.1226 17.425 80.3412 17.6525 80.5045 17.9375C80.6679 18.2225 80.7495 18.535 80.7495 18.875C80.7495 19.215 80.6679 19.5275 80.5045 19.8125C80.3412 20.0975 80.1226 20.325 79.8487 20.495C79.5749 20.665 79.2747 20.75 78.948 20.75C78.6213 20.75 78.321 20.665 78.0472 20.495C77.7734 20.325 77.5548 20.0975 77.3914 19.8125C77.2281 19.5275 77.1464 19.215 77.1464 18.875C77.1464 18.535 77.2281 18.2225 77.3914 17.9375C77.5548 17.6525 77.7734 17.425 78.0472 17.255C78.321 17.085 78.6213 17 78.948 17ZM88.3161 17C88.6428 17 88.943 17.085 89.2169 17.255C89.4907 17.425 89.7093 17.6525 89.8726 17.9375C90.036 18.2225 90.1177 18.535 90.1177 18.875C90.1177 19.215 90.036 19.5275 89.8726 19.8125C89.7093 20.0975 89.4907 20.325 89.2169 20.495C88.943 20.665 88.6428 20.75 88.3161 20.75C87.9894 20.75 87.6891 20.665 87.4153 20.495C87.1415 20.325 86.9229 20.0975 86.7595 19.8125C86.5962 19.5275 86.5145 19.215 86.5145 18.875C86.5145 18.535 86.5962 18.2225 86.7595 17.9375C86.9229 17.6525 87.1415 17.425 87.4153 17.255C87.6891 17.085 87.9894 17 88.3161 17ZM78.948 18.5C78.8519 18.5 78.7678 18.5375 78.6957 18.6125C78.6237 18.6875 78.5877 18.775 78.5877 18.875C78.5877 18.975 78.6237 19.0625 78.6957 19.1375C78.7678 19.2125 78.8519 19.25 78.948 19.25C79.0441 19.25 79.1281 19.2125 79.2002 19.1375C79.2722 19.0625 79.3083 18.975 79.3083 18.875C79.3083 18.775 79.2722 18.6875 79.2002 18.6125C79.1281 18.5375 79.0441 18.5 78.948 18.5ZM88.3161 18.5C88.22 18.5 88.1359 18.5375 88.0639 18.6125C87.9918 18.6875 87.9558 18.775 87.9558 18.875C87.9558 18.975 87.9918 19.0625 88.0639 19.1375C88.1359 19.2125 88.22 19.25 88.3161 19.25C88.4122 19.25 88.4963 19.2125 88.5683 19.1375C88.6404 19.0625 88.6764 18.975 88.6764 18.875C88.6764 18.775 88.6404 18.6875 88.5683 18.6125C88.4963 18.5375 88.4122 18.5 88.3161 18.5ZM83.632 12.5C84.1509 12.5 84.6313 12.635 85.0733 12.905C85.5153 13.175 85.866 13.54 86.1254 14C86.3848 14.46 86.5145 14.96 86.5145 15.5C86.5145 16.04 86.3848 16.54 86.1254 17C85.866 17.46 85.5153 17.825 85.0733 18.095C84.6313 18.365 84.1509 18.5 83.632 18.5C83.1132 18.5 82.6328 18.365 82.1908 18.095C81.7488 17.825 81.3981 17.46 81.1387 17C80.8792 16.54 80.7495 16.04 80.7495 15.5C80.7495 14.96 80.8792 14.46 81.1387 14C81.3981 13.54 81.7488 13.175 82.1908 12.905C82.6328 12.635 83.1132 12.5 83.632 12.5ZM83.632 14C83.3726 14 83.1324 14.0675 82.9114 14.2025C82.6904 14.3375 82.5151 14.52 82.3853 14.75C82.2556 14.98 82.1908 15.23 82.1908 15.5C82.1908 15.77 82.2556 16.02 82.3853 16.25C82.5151 16.48 82.6904 16.6625 82.9114 16.7975C83.1324 16.9325 83.3726 17 83.632 17C83.8915 17 84.1317 16.9325 84.3527 16.7975C84.5736 16.6625 84.749 16.48 84.8787 16.25C85.0084 16.02 85.0733 15.77 85.0733 15.5C85.0733 15.23 85.0084 14.98 84.8787 14.75C84.749 14.52 84.5736 14.3375 84.3527 14.2025C84.1317 14.0675 83.8915 14 83.632 14Z" fill="#0B1226"/>
</svg>
