<svg width="88" height="112" viewBox="0 0 88 112" fill="none" xmlns="http://www.w3.org/2000/svg">
<g filter="url(#filter0_d_16_5941)">
<path d="M4 16C4 7.16344 11.1634 0 20 0H68C76.8366 0 84 7.16344 84 16V64C84 72.8366 76.8366 80 68 80H20C11.1634 80 4 72.8366 4 64V16Z" fill="#D4AF37"/>
<path d="M38.6146 46.75C38.9602 46.81 39.3154 46.87 39.6802 46.93C40.5826 47.11 41.4946 47.32 42.4162 47.56C43.7218 47.9 44.941 48.28 46.0738 48.7C47.4946 49.22 48.7522 49.79 49.8466 50.41C51.133 51.13 52.189 51.91 53.0146 52.75H54.4546C54.8386 52.75 55.1698 52.605 55.4482 52.315C55.7266 52.025 55.8658 51.67 55.8658 51.25V42.16C56.4994 41.98 57.0226 41.625 57.4354 41.095C57.8482 40.565 58.0498 39.95 58.0402 39.25C58.0306 38.55 57.8242 37.935 57.421 37.405C57.0178 36.875 56.509 36.52 55.8946 36.34V27.25C55.8946 26.83 55.7506 26.475 55.4626 26.185C55.1746 25.895 54.829 25.75 54.4258 25.75H53.0146C52.2082 26.59 51.1522 27.37 49.8466 28.09C48.7522 28.71 47.4946 29.28 46.0738 29.8C44.941 30.22 43.7218 30.6 42.4162 30.94C41.4946 31.18 40.5826 31.39 39.6802 31.57L38.6146 31.75H32.8546C32.317 31.75 31.8274 31.885 31.3858 32.155C30.9442 32.425 30.5986 32.79 30.349 33.25C30.0994 33.71 29.9746 34.21 29.9746 34.75V43.75C29.9746 44.29 30.0994 44.79 30.349 45.25C30.5986 45.71 30.9442 46.075 31.3858 46.345C31.8274 46.615 32.3074 46.75 32.8258 46.75H34.2946L35.7346 54.25H38.6146V46.75ZM41.4946 34.24C42.685 33.98 43.8466 33.67 44.9794 33.31C48.2818 32.31 50.9506 31.08 52.9858 29.62V48.88C50.9506 47.42 48.2818 46.19 44.9794 45.19C43.8466 44.83 42.6754 44.52 41.4658 44.26V34.24H41.4946ZM32.8546 34.75H38.6146V43.75H32.8546V34.75Z" fill="white"/>
</g>
<defs>
<filter id="filter0_d_16_5941" x="0" y="0" width="88" height="92" filterUnits="userSpaceOnUse" color-interpolation-filters="sRGB">
<feFlood flood-opacity="0" result="BackgroundImageFix"/>
<feColorMatrix in="SourceAlpha" type="matrix" values="0 0 0 0 0 0 0 0 0 0 0 0 0 0 0 0 0 0 127 0" result="hardAlpha"/>
<feMorphology radius="6" operator="erode" in="SourceAlpha" result="effect1_dropShadow_16_5941"/>
<feOffset dy="8"/>
<feGaussianBlur stdDeviation="5"/>
<feComposite in2="hardAlpha" operator="out"/>
<feColorMatrix type="matrix" values="0 0 0 0 0.0431373 0 0 0 0 0.258824 0 0 0 0 0.960784 0 0 0 0.2 0"/>
<feBlend mode="normal" in2="BackgroundImageFix" result="effect1_dropShadow_16_5941"/>
<feBlend mode="normal" in="SourceGraphic" in2="effect1_dropShadow_16_5941" result="shape"/>
</filter>
</defs>
</svg>
