<svg width="56" height="80" viewBox="0 0 56 80" fill="none" xmlns="http://www.w3.org/2000/svg">
<path d="M0 12C0 5.37258 5.37258 0 12 0H44C50.6274 0 56 5.37258 56 12V44C56 50.6274 50.6274 56 44 56H12C5.37258 56 0 50.6274 0 44V12Z" fill="#0B1226"/>
<path d="M28.0004 27C28.8708 27 29.674 27.2233 30.41 27.67C31.146 28.1167 31.7284 28.7233 32.1572 29.49C32.586 30.2567 32.8004 31.0933 32.8004 32V38H30.8804V32C30.8804 31.48 30.7588 30.9967 30.5156 30.55C30.2724 30.1033 29.946 29.7433 29.5364 29.47C29.1268 29.1967 28.6724 29.04 28.1732 29H28.0004C27.5012 29 27.0372 29.1267 26.6084 29.38C26.1796 29.6333 25.834 29.9733 25.5716 30.4C25.3092 30.8267 25.1588 31.3 25.1204 31.82V38H23.2004V32C23.2004 31.0933 23.4148 30.2567 23.8436 29.49C24.2724 28.7233 24.8548 28.1167 25.5908 27.67C26.3268 27.2233 27.13 27 28.0004 27ZM21.7604 30C22.0292 30 22.2916 30.0333 22.5476 30.1C22.3812 30.6067 22.2788 31.1267 22.2404 31.66V32.08C22.1252 32.04 22.01 32.0133 21.8948 32H21.7604C21.3892 32 21.066 32.13 20.7908 32.39C20.5156 32.65 20.3588 32.9733 20.3204 33.36V33.5V38H18.4004V33.5C18.4004 32.86 18.5508 32.2733 18.8516 31.74C19.1524 31.2067 19.5588 30.7833 20.0708 30.47C20.5828 30.1567 21.146 30 21.7604 30ZM34.2404 30C34.8548 30 35.418 30.1567 35.93 30.47C36.442 30.7833 36.8484 31.2067 37.1492 31.74C37.45 32.2733 37.6004 32.86 37.6004 33.5V38H35.6804V33.5C35.6804 33.1133 35.5556 32.7767 35.306 32.49C35.0564 32.2033 34.746 32.04 34.3748 32H34.2404C34.074 32 33.914 32.0267 33.7604 32.08V32C33.7604 31.3467 33.6644 30.7133 33.4724 30.1C33.7156 30.0333 33.9716 30 34.2404 30ZM21.7604 24C22.1956 24 22.5956 24.1133 22.9604 24.34C23.3252 24.5667 23.6164 24.87 23.834 25.25C24.0516 25.63 24.1604 26.0467 24.1604 26.5C24.1604 26.9533 24.0516 27.37 23.834 27.75C23.6164 28.13 23.3252 28.4333 22.9604 28.66C22.5956 28.8867 22.1956 29 21.7604 29C21.3252 29 20.9252 28.8867 20.5604 28.66C20.1956 28.4333 19.9044 28.13 19.6868 27.75C19.4692 27.37 19.3604 26.9533 19.3604 26.5C19.3604 26.0467 19.4692 25.63 19.6868 25.25C19.9044 24.87 20.1956 24.5667 20.5604 24.34C20.9252 24.1133 21.3252 24 21.7604 24ZM34.2404 24C34.6756 24 35.0756 24.1133 35.4404 24.34C35.8052 24.5667 36.0964 24.87 36.314 25.25C36.5316 25.63 36.6404 26.0467 36.6404 26.5C36.6404 26.9533 36.5316 27.37 36.314 27.75C36.0964 28.13 35.8052 28.4333 35.4404 28.66C35.0756 28.8867 34.6756 29 34.2404 29C33.8052 29 33.4052 28.8867 33.0404 28.66C32.6756 28.4333 32.3844 28.13 32.1668 27.75C31.9492 27.37 31.8404 26.9533 31.8404 26.5C31.8404 26.0467 31.9492 25.63 32.1668 25.25C32.3844 24.87 32.6756 24.5667 33.0404 24.34C33.4052 24.1133 33.8052 24 34.2404 24ZM21.7604 26C21.6324 26 21.5204 26.05 21.4244 26.15C21.3284 26.25 21.2804 26.3667 21.2804 26.5C21.2804 26.6333 21.3284 26.75 21.4244 26.85C21.5204 26.95 21.6324 27 21.7604 27C21.8884 27 22.0004 26.95 22.0964 26.85C22.1924 26.75 22.2404 26.6333 22.2404 26.5C22.2404 26.3667 22.1924 26.25 22.0964 26.15C22.0004 26.05 21.8884 26 21.7604 26ZM34.2404 26C34.1124 26 34.0004 26.05 33.9044 26.15C33.8084 26.25 33.7604 26.3667 33.7604 26.5C33.7604 26.6333 33.8084 26.75 33.9044 26.85C34.0004 26.95 34.1124 27 34.2404 27C34.3684 27 34.4804 26.95 34.5764 26.85C34.6724 26.75 34.7204 26.6333 34.7204 26.5C34.7204 26.3667 34.6724 26.25 34.5764 26.15C34.4804 26.05 34.3684 26 34.2404 26ZM28.0004 18C28.6916 18 29.3316 18.18 29.9204 18.54C30.5092 18.9 30.9764 19.3867 31.322 20C31.6676 20.6133 31.8404 21.28 31.8404 22C31.8404 22.72 31.6676 23.3867 31.322 24C30.9764 24.6133 30.5092 25.1 29.9204 25.46C29.3316 25.82 28.6916 26 28.0004 26C27.3092 26 26.6692 25.82 26.0804 25.46C25.4916 25.1 25.0244 24.6133 24.6788 24C24.3332 23.3867 24.1604 22.72 24.1604 22C24.1604 21.28 24.3332 20.6133 24.6788 20C25.0244 19.3867 25.4916 18.9 26.0804 18.54C26.6692 18.18 27.3092 18 28.0004 18ZM28.0004 20C27.6548 20 27.3348 20.09 27.0404 20.27C26.746 20.45 26.5124 20.6933 26.3396 21C26.1668 21.3067 26.0804 21.64 26.0804 22C26.0804 22.36 26.1668 22.6933 26.3396 23C26.5124 23.3067 26.746 23.55 27.0404 23.73C27.3348 23.91 27.6548 24 28.0004 24C28.346 24 28.666 23.91 28.9604 23.73C29.2548 23.55 29.4884 23.3067 29.6612 23C29.834 22.6933 29.9204 22.36 29.9204 22C29.9204 21.64 29.834 21.3067 29.6612 21C29.4884 20.6933 29.2548 20.45 28.9604 20.27C28.666 20.09 28.346 20 28.0004 20Z" fill="white"/>
</svg>
