<svg width="80" height="104" viewBox="0 0 80 104" fill="none" xmlns="http://www.w3.org/2000/svg">
<path d="M0 16C0 7.16344 7.16344 0 16 0H64C72.8366 0 80 7.16344 80 16V64C80 72.8366 72.8366 80 64 80H16C7.16344 80 0 72.8366 0 64V16Z" fill="#0B1226"/>
<path d="M34.6146 46.75C34.9602 46.81 35.3154 46.87 35.6802 46.93C36.5826 47.11 37.4946 47.32 38.4162 47.56C39.7218 47.9 40.941 48.28 42.0738 48.7C43.4946 49.22 44.7522 49.79 45.8466 50.41C47.133 51.13 48.189 51.91 49.0146 52.75H50.4546C50.8386 52.75 51.1698 52.605 51.4482 52.315C51.7266 52.025 51.8658 51.67 51.8658 51.25V42.16C52.4994 41.98 53.0226 41.625 53.4354 41.095C53.8482 40.565 54.0498 39.95 54.0402 39.25C54.0306 38.55 53.8242 37.935 53.421 37.405C53.0178 36.875 52.509 36.52 51.8946 36.34V27.25C51.8946 26.83 51.7506 26.475 51.4626 26.185C51.1746 25.895 50.829 25.75 50.4258 25.75H49.0146C48.2082 26.59 47.1522 27.37 45.8466 28.09C44.7522 28.71 43.4946 29.28 42.0738 29.8C40.941 30.22 39.7218 30.6 38.4162 30.94C37.4946 31.18 36.5826 31.39 35.6802 31.57L34.6146 31.75H28.8546C28.317 31.75 27.8274 31.885 27.3858 32.155C26.9442 32.425 26.5986 32.79 26.349 33.25C26.0994 33.71 25.9746 34.21 25.9746 34.75V43.75C25.9746 44.29 26.0994 44.79 26.349 45.25C26.5986 45.71 26.9442 46.075 27.3858 46.345C27.8274 46.615 28.3074 46.75 28.8258 46.75H30.2946L31.7346 54.25H34.6146V46.75ZM37.4946 34.24C38.685 33.98 39.8466 33.67 40.9794 33.31C44.2818 32.31 46.9506 31.08 48.9858 29.62V48.88C46.9506 47.42 44.2818 46.19 40.9794 45.19C39.8466 44.83 38.6754 44.52 37.4658 44.26V34.24H37.4946ZM28.8546 34.75H34.6146V43.75H28.8546V34.75Z" fill="white"/>
</svg>
