<svg width="48" height="80" viewBox="0 0 48 80" fill="none" xmlns="http://www.w3.org/2000/svg">
<path d="M0 12C0 5.37258 5.37258 0 12 0H36C42.6274 0 48 5.37258 48 12V36C48 42.6274 42.6274 48 36 48H12C5.37258 48 0 42.6274 0 36V12Z" fill="#0B1226"/>
<path d="M31.0471 18.3398C31.5591 18.9132 31.9367 19.5198 32.1799 20.1598C32.4359 20.8665 32.5639 21.6998 32.5639 22.6598C32.5639 23.8065 32.3143 24.9132 31.8151 25.9798C31.3415 27.0198 30.6695 27.9598 29.7991 28.7998C28.9287 29.6398 27.9175 30.3198 26.7655 30.8398L25.9207 29.4598C26.9063 28.8998 27.7127 28.2532 28.3399 27.5198C28.8519 26.9332 29.2487 26.2798 29.5303 25.5598C29.7223 25.0532 29.8759 24.4798 29.9911 23.8398C29.7351 23.9732 29.4471 24.0665 29.1271 24.1198C28.8071 24.1732 28.4807 24.1865 28.1479 24.1598C27.5719 24.0932 27.0471 23.8998 26.5735 23.5798C26.0999 23.2598 25.7255 22.8432 25.4503 22.3298C25.1751 21.8165 25.0375 21.2598 25.0375 20.6598C25.0375 20.0332 25.1879 19.4498 25.4887 18.9098C25.7895 18.3698 26.1991 17.9432 26.7175 17.6298C27.2359 17.3165 27.7959 17.1598 28.3975 17.1598C28.8967 17.1598 29.3831 17.2665 29.8567 17.4798C30.3303 17.6932 30.7271 17.9798 31.0471 18.3398ZM21.4471 18.3398C21.9591 18.9132 22.3367 19.5198 22.5799 20.1598C22.8359 20.8665 22.9639 21.6998 22.9639 22.6598C22.9639 23.8065 22.7143 24.9132 22.2151 25.9798C21.7415 27.0198 21.0695 27.9598 20.1991 28.7998C19.3287 29.6398 18.3175 30.3198 17.1655 30.8398L16.3207 29.4598C17.3063 28.8998 18.1127 28.2532 18.7399 27.5198C19.2519 26.9332 19.6487 26.2798 19.9303 25.5598C20.1223 25.0532 20.2759 24.4798 20.3911 23.8398C20.1351 23.9732 19.8471 24.0665 19.5271 24.1198C19.2071 24.1732 18.8807 24.1865 18.5479 24.1598C17.9719 24.0932 17.4471 23.8998 16.9735 23.5798C16.4999 23.2598 16.1255 22.8432 15.8503 22.3298C15.5751 21.8165 15.4375 21.2598 15.4375 20.6598C15.4375 20.0332 15.5879 19.4498 15.8887 18.9098C16.1895 18.3698 16.5991 17.9432 17.1175 17.6298C17.6359 17.3165 18.1959 17.1598 18.7975 17.1598C19.2967 17.1598 19.7831 17.2665 20.2567 17.4798C20.7303 17.6932 21.1271 17.9798 21.4471 18.3398Z" fill="white"/>
</svg>
